solid OpenSCAD_Model
  facet normal -1 0 0
    outer loop
      vertex -15 -12.5 -1.5
      vertex -15 -12.5 1.5
      vertex -15 12.5 -1.5
    endloop
  endfacet
  facet normal -1 0 0
    outer loop
      vertex -15 12.5 -1.5
      vertex -15 -12.5 1.5
      vertex -15 12.5 1.5
    endloop
  endfacet
  facet normal 0 -1 0
    outer loop
      vertex -15 -12.5 1.5
      vertex -15 -12.5 -1.5
      vertex 15 -12.5 -1.5
    endloop
  endfacet
  facet normal 0 -1 0
    outer loop
      vertex 15 -12.5 1.5
      vertex -15 -12.5 1.5
      vertex 15 -12.5 -1.5
    endloop
  endfacet
  facet normal 0 0 -1
    outer loop
      vertex -11.2653 9.01127 -1.5
      vertex -15 12.5 -1.5
      vertex 15 -12.5 -1.5
    endloop
  endfacet
  facet normal 0 0 -1
    outer loop
      vertex 11.6137 9.18882 -1.5
      vertex -15 12.5 -1.5
      vertex 15 12.5 -1.5
    endloop
  endfacet
  facet normal 0 0 -1
    outer loop
      vertex -15 -12.5 -1.5
      vertex -15 12.5 -1.5
      vertex -13.25 -8 -1.5
    endloop
  endfacet
  facet normal 0 0 -1
    outer loop
      vertex -15 -12.5 -1.5
      vertex -13.25 -8 -1.5
      vertex -13.1888 -8.38627 -1.5
    endloop
  endfacet
  facet normal 0 0 -1
    outer loop
      vertex -15 -12.5 -1.5
      vertex -13.1888 -8.38627 -1.5
      vertex -13.0113 -8.73473 -1.5
    endloop
  endfacet
  facet normal 0 0 -1
    outer loop
      vertex -15 -12.5 -1.5
      vertex -13.0113 -8.73473 -1.5
      vertex -12.7347 -9.01127 -1.5
    endloop
  endfacet
  facet normal 0 0 -1
    outer loop
      vertex -15 -12.5 -1.5
      vertex -12.7347 -9.01127 -1.5
      vertex -12.3863 -9.18882 -1.5
    endloop
  endfacet
  facet normal 0 0 -1
    outer loop
      vertex -15 -12.5 -1.5
      vertex -12.3863 -9.18882 -1.5
      vertex -12 -9.25 -1.5
    endloop
  endfacet
  facet normal 0 0 -1
    outer loop
      vertex -15 -12.5 -1.5
      vertex -12 -9.25 -1.5
      vertex 15 -12.5 -1.5
    endloop
  endfacet
  facet normal 0 0 -1
    outer loop
      vertex -11.2653 -9.01127 -1.5
      vertex 15 -12.5 -1.5
      vertex -11.6137 -9.18882 -1.5
    endloop
  endfacet
  facet normal 0 0 -1
    outer loop
      vertex -10.9887 -8.73473 -1.5
      vertex 15 -12.5 -1.5
      vertex -11.2653 -9.01127 -1.5
    endloop
  endfacet
  facet normal 0 0 -1
    outer loop
      vertex -10.8112 -8.38627 -1.5
      vertex 15 -12.5 -1.5
      vertex -10.9887 -8.73473 -1.5
    endloop
  endfacet
  facet normal 0 0 -1
    outer loop
      vertex -12 6.75 -1.5
      vertex 15 -12.5 -1.5
      vertex -12.3863 6.81118 -1.5
    endloop
  endfacet
  facet normal 0 0 -1
    outer loop
      vertex -10.9887 -7.26527 -1.5
      vertex -15 12.5 -1.5
      vertex -10.8112 -7.61373 -1.5
    endloop
  endfacet
  facet normal 0 0 -1
    outer loop
      vertex -11.2653 -6.98873 -1.5
      vertex -15 12.5 -1.5
      vertex -10.9887 -7.26527 -1.5
    endloop
  endfacet
  facet normal 0 0 -1
    outer loop
      vertex -10.8112 -8.38627 -1.5
      vertex -10.75 -8 -1.5
      vertex 15 -12.5 -1.5
    endloop
  endfacet
  facet normal 0 0 -1
    outer loop
      vertex -10.75 -8 -1.5
      vertex -10.8112 -7.61373 -1.5
      vertex 15 -12.5 -1.5
    endloop
  endfacet
  facet normal 0 0 -1
    outer loop
      vertex -11.6137 -6.81118 -1.5
      vertex -15 12.5 -1.5
      vertex -11.2653 -6.98873 -1.5
    endloop
  endfacet
  facet normal 0 0 -1
    outer loop
      vertex -12 -6.75 -1.5
      vertex -15 12.5 -1.5
      vertex -11.6137 -6.81118 -1.5
    endloop
  endfacet
  facet normal 0 0 -1
    outer loop
      vertex -12.3863 -6.81118 -1.5
      vertex -15 12.5 -1.5
      vertex -12 -6.75 -1.5
    endloop
  endfacet
  facet normal 0 0 -1
    outer loop
      vertex -12.7347 -6.98873 -1.5
      vertex -15 12.5 -1.5
      vertex -12.3863 -6.81118 -1.5
    endloop
  endfacet
  facet normal 0 0 -1
    outer loop
      vertex -13.0113 -7.26527 -1.5
      vertex -15 12.5 -1.5
      vertex -12.7347 -6.98873 -1.5
    endloop
  endfacet
  facet normal 0 0 -1
    outer loop
      vertex -13.1888 -7.61373 -1.5
      vertex -15 12.5 -1.5
      vertex -13.0113 -7.26527 -1.5
    endloop
  endfacet
  facet normal 0 0 -1
    outer loop
      vertex -13.25 -8 -1.5
      vertex -15 12.5 -1.5
      vertex -13.1888 -7.61373 -1.5
    endloop
  endfacet
  facet normal 0 0 -1
    outer loop
      vertex -10.8112 -7.61373 -1.5
      vertex -15 12.5 -1.5
      vertex -13.25 8 -1.5
    endloop
  endfacet
  facet normal 0 0 -1
    outer loop
      vertex -10.8112 -7.61373 -1.5
      vertex -13.25 8 -1.5
      vertex -13.1888 7.61373 -1.5
    endloop
  endfacet
  facet normal 0 0 -1
    outer loop
      vertex -10.8112 -7.61373 -1.5
      vertex -13.1888 7.61373 -1.5
      vertex -13.0113 7.26527 -1.5
    endloop
  endfacet
  facet normal 0 0 -1
    outer loop
      vertex -10.8112 -7.61373 -1.5
      vertex -13.0113 7.26527 -1.5
      vertex -12.7347 6.98873 -1.5
    endloop
  endfacet
  facet normal 0 0 -1
    outer loop
      vertex -10.8112 -7.61373 -1.5
      vertex -12.7347 6.98873 -1.5
      vertex 15 -12.5 -1.5
    endloop
  endfacet
  facet normal 0 0 -1
    outer loop
      vertex -12.7347 6.98873 -1.5
      vertex -12.3863 6.81118 -1.5
      vertex 15 -12.5 -1.5
    endloop
  endfacet
  facet normal 0 0 -1
    outer loop
      vertex -11.6137 6.81118 -1.5
      vertex 15 -12.5 -1.5
      vertex -12 6.75 -1.5
    endloop
  endfacet
  facet normal 0 0 -1
    outer loop
      vertex -11.2653 6.98873 -1.5
      vertex 15 -12.5 -1.5
      vertex -11.6137 6.81118 -1.5
    endloop
  endfacet
  facet normal 0 0 -1
    outer loop
      vertex 11.6137 -9.18882 -1.5
      vertex 15 -12.5 -1.5
      vertex 11.2653 -9.01127 -1.5
    endloop
  endfacet
  facet normal 0 0 -1
    outer loop
      vertex -11.6137 9.18882 -1.5
      vertex -15 12.5 -1.5
      vertex -11.2653 9.01127 -1.5
    endloop
  endfacet
  facet normal 0 0 -1
    outer loop
      vertex -11.2653 6.98873 -1.5
      vertex -10.9887 7.26527 -1.5
      vertex 15 -12.5 -1.5
    endloop
  endfacet
  facet normal 0 0 -1
    outer loop
      vertex -12.7347 9.01127 -1.5
      vertex -15 12.5 -1.5
      vertex -12.3863 9.18882 -1.5
    endloop
  endfacet
  facet normal 0 0 -1
    outer loop
      vertex -10.9887 7.26527 -1.5
      vertex -10.8112 7.61373 -1.5
      vertex 15 -12.5 -1.5
    endloop
  endfacet
  facet normal 0 0 -1
    outer loop
      vertex -12.3863 9.18882 -1.5
      vertex -15 12.5 -1.5
      vertex -12 9.25 -1.5
    endloop
  endfacet
  facet normal 0 0 -1
    outer loop
      vertex -10.8112 7.61373 -1.5
      vertex -10.75 8 -1.5
      vertex 15 -12.5 -1.5
    endloop
  endfacet
  facet normal 0 0 -1
    outer loop
      vertex -10.75 8 -1.5
      vertex -10.8112 8.38627 -1.5
      vertex 15 -12.5 -1.5
    endloop
  endfacet
  facet normal 0 0 -1
    outer loop
      vertex -12 9.25 -1.5
      vertex -15 12.5 -1.5
      vertex -11.6137 9.18882 -1.5
    endloop
  endfacet
  facet normal 0 0 -1
    outer loop
      vertex -10.8112 8.38627 -1.5
      vertex -10.9887 8.73473 -1.5
      vertex 15 -12.5 -1.5
    endloop
  endfacet
  facet normal 0 0 -1
    outer loop
      vertex -10.9887 8.73473 -1.5
      vertex -11.2653 9.01127 -1.5
      vertex 15 -12.5 -1.5
    endloop
  endfacet
  facet normal 0 0 -1
    outer loop
      vertex -13.0113 8.73473 -1.5
      vertex -15 12.5 -1.5
      vertex -12.7347 9.01127 -1.5
    endloop
  endfacet
  facet normal 0 0 -1
    outer loop
      vertex -13.1888 8.38627 -1.5
      vertex -15 12.5 -1.5
      vertex -13.0113 8.73473 -1.5
    endloop
  endfacet
  facet normal 0 0 -1
    outer loop
      vertex -13.25 8 -1.5
      vertex -15 12.5 -1.5
      vertex -13.1888 8.38627 -1.5
    endloop
  endfacet
  facet normal 0 0 -1
    outer loop
      vertex 10.8112 -8.38627 -1.5
      vertex -15 12.5 -1.5
      vertex 10.75 -8 -1.5
    endloop
  endfacet
  facet normal 0 0 -1
    outer loop
      vertex 10.9887 -8.73473 -1.5
      vertex -15 12.5 -1.5
      vertex 10.8112 -8.38627 -1.5
    endloop
  endfacet
  facet normal 0 0 -1
    outer loop
      vertex 11.2653 -9.01127 -1.5
      vertex -15 12.5 -1.5
      vertex 10.9887 -8.73473 -1.5
    endloop
  endfacet
  facet normal 0 0 -1
    outer loop
      vertex 15 -12.5 -1.5
      vertex -15 12.5 -1.5
      vertex 11.2653 -9.01127 -1.5
    endloop
  endfacet
  facet normal 0 0 -1
    outer loop
      vertex 12 -9.25 -1.5
      vertex 15 -12.5 -1.5
      vertex 11.6137 -9.18882 -1.5
    endloop
  endfacet
  facet normal 0 0 -1
    outer loop
      vertex 13.1888 -7.61373 -1.5
      vertex 15 12.5 -1.5
      vertex 13.25 -8 -1.5
    endloop
  endfacet
  facet normal 0 0 -1
    outer loop
      vertex 15 -12.5 -1.5
      vertex 12 -9.25 -1.5
      vertex 12.3863 -9.18882 -1.5
    endloop
  endfacet
  facet normal 0 0 -1
    outer loop
      vertex 15 -12.5 -1.5
      vertex 12.3863 -9.18882 -1.5
      vertex 12.7347 -9.01127 -1.5
    endloop
  endfacet
  facet normal 0 0 -1
    outer loop
      vertex 15 -12.5 -1.5
      vertex 12.7347 -9.01127 -1.5
      vertex 13.0113 -8.73473 -1.5
    endloop
  endfacet
  facet normal 0 0 -1
    outer loop
      vertex 15 -12.5 -1.5
      vertex 13.0113 -8.73473 -1.5
      vertex 13.1888 -8.38627 -1.5
    endloop
  endfacet
  facet normal 0 0 -1
    outer loop
      vertex 15 -12.5 -1.5
      vertex 13.1888 -8.38627 -1.5
      vertex 13.25 -8 -1.5
    endloop
  endfacet
  facet normal 0 0 -1
    outer loop
      vertex 15 -12.5 -1.5
      vertex 13.25 -8 -1.5
      vertex 15 12.5 -1.5
    endloop
  endfacet
  facet normal 0 0 -1
    outer loop
      vertex 13.0113 -7.26527 -1.5
      vertex 15 12.5 -1.5
      vertex 13.1888 -7.61373 -1.5
    endloop
  endfacet
  facet normal 0 0 -1
    outer loop
      vertex 12.7347 -6.98873 -1.5
      vertex 15 12.5 -1.5
      vertex 13.0113 -7.26527 -1.5
    endloop
  endfacet
  facet normal 0 0 -1
    outer loop
      vertex 12.3863 -6.81118 -1.5
      vertex 15 12.5 -1.5
      vertex 12.7347 -6.98873 -1.5
    endloop
  endfacet
  facet normal 0 0 -1
    outer loop
      vertex 12 -6.75 -1.5
      vertex 15 12.5 -1.5
      vertex 12.3863 -6.81118 -1.5
    endloop
  endfacet
  facet normal 0 0 -1
    outer loop
      vertex 10.8112 -7.61373 -1.5
      vertex 15 12.5 -1.5
      vertex 10.9887 -7.26527 -1.5
    endloop
  endfacet
  facet normal 0 0 -1
    outer loop
      vertex 12 -6.75 -1.5
      vertex 11.6137 -6.81118 -1.5
      vertex 15 12.5 -1.5
    endloop
  endfacet
  facet normal 0 0 -1
    outer loop
      vertex 11.6137 -6.81118 -1.5
      vertex 11.2653 -6.98873 -1.5
      vertex 15 12.5 -1.5
    endloop
  endfacet
  facet normal 0 0 -1
    outer loop
      vertex 11.2653 -6.98873 -1.5
      vertex 10.9887 -7.26527 -1.5
      vertex 15 12.5 -1.5
    endloop
  endfacet
  facet normal 0 0 -1
    outer loop
      vertex 10.75 -8 -1.5
      vertex -15 12.5 -1.5
      vertex 10.8112 -7.61373 -1.5
    endloop
  endfacet
  facet normal 0 0 -1
    outer loop
      vertex 13.25 8 -1.5
      vertex 15 12.5 -1.5
      vertex 13.1888 7.61373 -1.5
    endloop
  endfacet
  facet normal 0 0 -1
    outer loop
      vertex 10.8112 -7.61373 -1.5
      vertex -15 12.5 -1.5
      vertex 10.75 8 -1.5
    endloop
  endfacet
  facet normal 0 0 -1
    outer loop
      vertex 10.8112 -7.61373 -1.5
      vertex 10.75 8 -1.5
      vertex 10.8112 7.61373 -1.5
    endloop
  endfacet
  facet normal 0 0 -1
    outer loop
      vertex 10.8112 -7.61373 -1.5
      vertex 10.8112 7.61373 -1.5
      vertex 10.9887 7.26527 -1.5
    endloop
  endfacet
  facet normal 0 0 -1
    outer loop
      vertex 10.8112 -7.61373 -1.5
      vertex 10.9887 7.26527 -1.5
      vertex 11.2653 6.98873 -1.5
    endloop
  endfacet
  facet normal 0 0 -1
    outer loop
      vertex 10.8112 -7.61373 -1.5
      vertex 11.2653 6.98873 -1.5
      vertex 11.6137 6.81118 -1.5
    endloop
  endfacet
  facet normal 0 0 -1
    outer loop
      vertex 10.8112 -7.61373 -1.5
      vertex 11.6137 6.81118 -1.5
      vertex 12 6.75 -1.5
    endloop
  endfacet
  facet normal 0 0 -1
    outer loop
      vertex 10.8112 -7.61373 -1.5
      vertex 12 6.75 -1.5
      vertex 12.3863 6.81118 -1.5
    endloop
  endfacet
  facet normal 0 0 -1
    outer loop
      vertex 10.8112 -7.61373 -1.5
      vertex 12.3863 6.81118 -1.5
      vertex 12.7347 6.98873 -1.5
    endloop
  endfacet
  facet normal 0 0 -1
    outer loop
      vertex 10.8112 -7.61373 -1.5
      vertex 12.7347 6.98873 -1.5
      vertex 13.0113 7.26527 -1.5
    endloop
  endfacet
  facet normal 0 0 -1
    outer loop
      vertex 10.8112 -7.61373 -1.5
      vertex 13.0113 7.26527 -1.5
      vertex 13.1888 7.61373 -1.5
    endloop
  endfacet
  facet normal 0 0 -1
    outer loop
      vertex 10.8112 -7.61373 -1.5
      vertex 13.1888 7.61373 -1.5
      vertex 15 12.5 -1.5
    endloop
  endfacet
  facet normal 0 0 -1
    outer loop
      vertex 13.1888 8.38627 -1.5
      vertex 15 12.5 -1.5
      vertex 13.25 8 -1.5
    endloop
  endfacet
  facet normal 0 0 -1
    outer loop
      vertex 13.0113 8.73473 -1.5
      vertex 15 12.5 -1.5
      vertex 13.1888 8.38627 -1.5
    endloop
  endfacet
  facet normal 0 0 -1
    outer loop
      vertex 12.7347 9.01127 -1.5
      vertex 15 12.5 -1.5
      vertex 13.0113 8.73473 -1.5
    endloop
  endfacet
  facet normal 0 0 -1
    outer loop
      vertex 12.3863 9.18882 -1.5
      vertex 15 12.5 -1.5
      vertex 12.7347 9.01127 -1.5
    endloop
  endfacet
  facet normal 0 0 -1
    outer loop
      vertex 12 9.25 -1.5
      vertex 15 12.5 -1.5
      vertex 12.3863 9.18882 -1.5
    endloop
  endfacet
  facet normal 0 0 -1
    outer loop
      vertex 11.6137 9.18882 -1.5
      vertex 15 12.5 -1.5
      vertex 12 9.25 -1.5
    endloop
  endfacet
  facet normal 0 0 -1
    outer loop
      vertex 11.2653 9.01127 -1.5
      vertex -15 12.5 -1.5
      vertex 11.6137 9.18882 -1.5
    endloop
  endfacet
  facet normal 0 0 -1
    outer loop
      vertex 10.9887 8.73473 -1.5
      vertex -15 12.5 -1.5
      vertex 11.2653 9.01127 -1.5
    endloop
  endfacet
  facet normal 0 0 -1
    outer loop
      vertex 10.8112 8.38627 -1.5
      vertex -15 12.5 -1.5
      vertex 10.9887 8.73473 -1.5
    endloop
  endfacet
  facet normal 0 0 -1
    outer loop
      vertex 10.75 8 -1.5
      vertex -15 12.5 -1.5
      vertex 10.8112 8.38627 -1.5
    endloop
  endfacet
  facet normal 0 0 -1
    outer loop
      vertex -11.6137 -9.18882 -1.5
      vertex 15 -12.5 -1.5
      vertex -12 -9.25 -1.5
    endloop
  endfacet
  facet normal 0 1 0
    outer loop
      vertex -15 12.5 -1.5
      vertex -15 12.5 1.5
      vertex 15 12.5 -1.5
    endloop
  endfacet
  facet normal 0 1 0
    outer loop
      vertex 15 12.5 -1.5
      vertex -15 12.5 1.5
      vertex 15 12.5 1.5
    endloop
  endfacet
  facet normal 0 0 1
    outer loop
      vertex -11.2653 -9.01127 1.5
      vertex -15 -12.5 1.5
      vertex 15 -12.5 1.5
    endloop
  endfacet
  facet normal 0 0 1
    outer loop
      vertex 11.2653 -9.01127 1.5
      vertex -15 12.5 1.5
      vertex 15 -12.5 1.5
    endloop
  endfacet
  facet normal 0 0 1
    outer loop
      vertex -11.2653 -9.01127 1.5
      vertex -11.6137 -9.18882 1.5
      vertex -15 -12.5 1.5
    endloop
  endfacet
  facet normal 0 0 1
    outer loop
      vertex -13.25 -8 1.5
      vertex -15 -12.5 1.5
      vertex -13.1888 -8.38627 1.5
    endloop
  endfacet
  facet normal 0 0 1
    outer loop
      vertex -11.6137 -6.81118 1.5
      vertex -11.2653 -6.98873 1.5
      vertex 15 -12.5 1.5
    endloop
  endfacet
  facet normal 0 0 1
    outer loop
      vertex -15 12.5 1.5
      vertex -15 -12.5 1.5
      vertex -13.25 -8 1.5
    endloop
  endfacet
  facet normal 0 0 1
    outer loop
      vertex -10.8112 -8.38627 1.5
      vertex -10.9887 -8.73473 1.5
      vertex 15 -12.5 1.5
    endloop
  endfacet
  facet normal 0 0 1
    outer loop
      vertex -10.75 -8 1.5
      vertex -10.8112 -8.38627 1.5
      vertex 15 -12.5 1.5
    endloop
  endfacet
  facet normal 0 0 1
    outer loop
      vertex -15 12.5 1.5
      vertex -13.1888 -7.61373 1.5
      vertex -13.0113 -7.26527 1.5
    endloop
  endfacet
  facet normal 0 0 1
    outer loop
      vertex -10.8112 -7.61373 1.5
      vertex -10.75 -8 1.5
      vertex 15 -12.5 1.5
    endloop
  endfacet
  facet normal 0 0 1
    outer loop
      vertex -15 12.5 1.5
      vertex -13.0113 -7.26527 1.5
      vertex -12.7347 -6.98873 1.5
    endloop
  endfacet
  facet normal 0 0 1
    outer loop
      vertex -10.9887 -7.26527 1.5
      vertex -10.8112 -7.61373 1.5
      vertex 15 -12.5 1.5
    endloop
  endfacet
  facet normal 0 0 1
    outer loop
      vertex -15 12.5 1.5
      vertex -12.7347 -6.98873 1.5
      vertex -12.3863 -6.81118 1.5
    endloop
  endfacet
  facet normal 0 0 1
    outer loop
      vertex -11.2653 -6.98873 1.5
      vertex -10.9887 -7.26527 1.5
      vertex 15 -12.5 1.5
    endloop
  endfacet
  facet normal 0 0 1
    outer loop
      vertex -15 12.5 1.5
      vertex -12.3863 -6.81118 1.5
      vertex -12 -6.75 1.5
    endloop
  endfacet
  facet normal 0 0 1
    outer loop
      vertex -12 6.75 1.5
      vertex -11.6137 -6.81118 1.5
      vertex 15 -12.5 1.5
    endloop
  endfacet
  facet normal 0 0 1
    outer loop
      vertex -15 12.5 1.5
      vertex -12 -6.75 1.5
      vertex -11.6137 -6.81118 1.5
    endloop
  endfacet
  facet normal 0 0 1
    outer loop
      vertex -10.9887 -8.73473 1.5
      vertex -11.2653 -9.01127 1.5
      vertex 15 -12.5 1.5
    endloop
  endfacet
  facet normal 0 0 1
    outer loop
      vertex -10.9887 8.73473 1.5
      vertex -10.8112 8.38627 1.5
      vertex 15 -12.5 1.5
    endloop
  endfacet
  facet normal 0 0 1
    outer loop
      vertex -12 -9.25 1.5
      vertex -15 -12.5 1.5
      vertex -11.6137 -9.18882 1.5
    endloop
  endfacet
  facet normal 0 0 1
    outer loop
      vertex -12.3863 -9.18882 1.5
      vertex -15 -12.5 1.5
      vertex -12 -9.25 1.5
    endloop
  endfacet
  facet normal 0 0 1
    outer loop
      vertex -12.7347 -9.01127 1.5
      vertex -15 -12.5 1.5
      vertex -12.3863 -9.18882 1.5
    endloop
  endfacet
  facet normal 0 0 1
    outer loop
      vertex -13.0113 -8.73473 1.5
      vertex -15 -12.5 1.5
      vertex -12.7347 -9.01127 1.5
    endloop
  endfacet
  facet normal 0 0 1
    outer loop
      vertex -13.1888 -8.38627 1.5
      vertex -15 -12.5 1.5
      vertex -13.0113 -8.73473 1.5
    endloop
  endfacet
  facet normal 0 0 1
    outer loop
      vertex 10.9887 -8.73473 1.5
      vertex 10.8112 -8.38627 1.5
      vertex -15 12.5 1.5
    endloop
  endfacet
  facet normal 0 0 1
    outer loop
      vertex -15 12.5 1.5
      vertex -11.6137 -6.81118 1.5
      vertex -13.1888 7.61373 1.5
    endloop
  endfacet
  facet normal 0 0 1
    outer loop
      vertex -11.6137 6.81118 1.5
      vertex -12 6.75 1.5
      vertex 15 -12.5 1.5
    endloop
  endfacet
  facet normal 0 0 1
    outer loop
      vertex -15 12.5 1.5
      vertex -13.1888 7.61373 1.5
      vertex -13.25 8 1.5
    endloop
  endfacet
  facet normal 0 0 1
    outer loop
      vertex 13.1888 -8.38627 1.5
      vertex 13.0113 -8.73473 1.5
      vertex 15 -12.5 1.5
    endloop
  endfacet
  facet normal 0 0 1
    outer loop
      vertex -15 12.5 1.5
      vertex -13.25 8 1.5
      vertex -13.1888 8.38627 1.5
    endloop
  endfacet
  facet normal 0 0 1
    outer loop
      vertex -15 12.5 1.5
      vertex -13.1888 8.38627 1.5
      vertex -13.0113 8.73473 1.5
    endloop
  endfacet
  facet normal 0 0 1
    outer loop
      vertex -10.9887 7.26527 1.5
      vertex -11.2653 6.98873 1.5
      vertex 15 -12.5 1.5
    endloop
  endfacet
  facet normal 0 0 1
    outer loop
      vertex -15 12.5 1.5
      vertex -13.0113 8.73473 1.5
      vertex -12.7347 9.01127 1.5
    endloop
  endfacet
  facet normal 0 0 1
    outer loop
      vertex -10.8112 7.61373 1.5
      vertex -10.9887 7.26527 1.5
      vertex 15 -12.5 1.5
    endloop
  endfacet
  facet normal 0 0 1
    outer loop
      vertex -15 12.5 1.5
      vertex -12.7347 9.01127 1.5
      vertex -12.3863 9.18882 1.5
    endloop
  endfacet
  facet normal 0 0 1
    outer loop
      vertex -10.75 8 1.5
      vertex -10.8112 7.61373 1.5
      vertex 15 -12.5 1.5
    endloop
  endfacet
  facet normal 0 0 1
    outer loop
      vertex -15 12.5 1.5
      vertex -12.3863 9.18882 1.5
      vertex -12 9.25 1.5
    endloop
  endfacet
  facet normal 0 0 1
    outer loop
      vertex -10.8112 8.38627 1.5
      vertex -10.75 8 1.5
      vertex 15 -12.5 1.5
    endloop
  endfacet
  facet normal 0 0 1
    outer loop
      vertex -15 12.5 1.5
      vertex -12 9.25 1.5
      vertex -11.6137 9.18882 1.5
    endloop
  endfacet
  facet normal 0 0 1
    outer loop
      vertex -15 12.5 1.5
      vertex -11.2653 9.01127 1.5
      vertex 15 -12.5 1.5
    endloop
  endfacet
  facet normal 0 0 1
    outer loop
      vertex -15 12.5 1.5
      vertex -11.6137 9.18882 1.5
      vertex -11.2653 9.01127 1.5
    endloop
  endfacet
  facet normal 0 0 1
    outer loop
      vertex -11.2653 9.01127 1.5
      vertex -10.9887 8.73473 1.5
      vertex 15 -12.5 1.5
    endloop
  endfacet
  facet normal 0 0 1
    outer loop
      vertex -12.3863 6.81118 1.5
      vertex -11.6137 -6.81118 1.5
      vertex -12 6.75 1.5
    endloop
  endfacet
  facet normal 0 0 1
    outer loop
      vertex -12.7347 6.98873 1.5
      vertex -11.6137 -6.81118 1.5
      vertex -12.3863 6.81118 1.5
    endloop
  endfacet
  facet normal 0 0 1
    outer loop
      vertex -13.0113 7.26527 1.5
      vertex -11.6137 -6.81118 1.5
      vertex -12.7347 6.98873 1.5
    endloop
  endfacet
  facet normal 0 0 1
    outer loop
      vertex -13.1888 7.61373 1.5
      vertex -11.6137 -6.81118 1.5
      vertex -13.0113 7.26527 1.5
    endloop
  endfacet
  facet normal 0 0 1
    outer loop
      vertex 11.2653 9.01127 1.5
      vertex 11.6137 9.18882 1.5
      vertex 15 12.5 1.5
    endloop
  endfacet
  facet normal 0 0 1
    outer loop
      vertex 10.75 -8 1.5
      vertex -15 12.5 1.5
      vertex 10.8112 -8.38627 1.5
    endloop
  endfacet
  facet normal 0 0 1
    outer loop
      vertex 10.8112 -7.61373 1.5
      vertex -15 12.5 1.5
      vertex 10.75 -8 1.5
    endloop
  endfacet
  facet normal 0 0 1
    outer loop
      vertex 10.9887 -7.26527 1.5
      vertex 11.2653 -6.98873 1.5
      vertex 15 12.5 1.5
    endloop
  endfacet
  facet normal 0 0 1
    outer loop
      vertex 10.8112 7.61373 1.5
      vertex -15 12.5 1.5
      vertex 10.8112 -7.61373 1.5
    endloop
  endfacet
  facet normal 0 0 1
    outer loop
      vertex 13.1888 -7.61373 1.5
      vertex 13.25 -8 1.5
      vertex 15 -12.5 1.5
    endloop
  endfacet
  facet normal 0 0 1
    outer loop
      vertex 12 -9.25 1.5
      vertex 11.6137 -9.18882 1.5
      vertex 15 -12.5 1.5
    endloop
  endfacet
  facet normal 0 0 1
    outer loop
      vertex 12.7347 -9.01127 1.5
      vertex 12.3863 -9.18882 1.5
      vertex 15 -12.5 1.5
    endloop
  endfacet
  facet normal 0 0 1
    outer loop
      vertex 15 12.5 1.5
      vertex 11.2653 -6.98873 1.5
      vertex 11.6137 -6.81118 1.5
    endloop
  endfacet
  facet normal 0 0 1
    outer loop
      vertex 13.0113 -8.73473 1.5
      vertex 12.7347 -9.01127 1.5
      vertex 15 -12.5 1.5
    endloop
  endfacet
  facet normal 0 0 1
    outer loop
      vertex 15 12.5 1.5
      vertex 11.6137 -6.81118 1.5
      vertex 12 -6.75 1.5
    endloop
  endfacet
  facet normal 0 0 1
    outer loop
      vertex 11.6137 9.18882 1.5
      vertex 12 9.25 1.5
      vertex 15 12.5 1.5
    endloop
  endfacet
  facet normal 0 0 1
    outer loop
      vertex 15 12.5 1.5
      vertex 12 -6.75 1.5
      vertex 12.3863 -6.81118 1.5
    endloop
  endfacet
  facet normal 0 0 1
    outer loop
      vertex 15 12.5 1.5
      vertex 12.3863 -6.81118 1.5
      vertex 12.7347 -6.98873 1.5
    endloop
  endfacet
  facet normal 0 0 1
    outer loop
      vertex 13.25 -8 1.5
      vertex 13.1888 -8.38627 1.5
      vertex 15 -12.5 1.5
    endloop
  endfacet
  facet normal 0 0 1
    outer loop
      vertex 15 12.5 1.5
      vertex 12.7347 -6.98873 1.5
      vertex 13.0113 -7.26527 1.5
    endloop
  endfacet
  facet normal 0 0 1
    outer loop
      vertex 15 12.5 1.5
      vertex 13.1888 -7.61373 1.5
      vertex 15 -12.5 1.5
    endloop
  endfacet
  facet normal 0 0 1
    outer loop
      vertex 15 12.5 1.5
      vertex 13.0113 -7.26527 1.5
      vertex 13.1888 -7.61373 1.5
    endloop
  endfacet
  facet normal 0 0 1
    outer loop
      vertex 12.3863 -9.18882 1.5
      vertex 12 -9.25 1.5
      vertex 15 -12.5 1.5
    endloop
  endfacet
  facet normal 0 0 1
    outer loop
      vertex 11.6137 -9.18882 1.5
      vertex 11.2653 -9.01127 1.5
      vertex 15 -12.5 1.5
    endloop
  endfacet
  facet normal 0 0 1
    outer loop
      vertex 10.9887 -8.73473 1.5
      vertex -15 12.5 1.5
      vertex 11.2653 -9.01127 1.5
    endloop
  endfacet
  facet normal 0 0 1
    outer loop
      vertex 10.8112 -7.61373 1.5
      vertex 10.9887 -7.26527 1.5
      vertex 15 12.5 1.5
    endloop
  endfacet
  facet normal 0 0 1
    outer loop
      vertex 10.9887 7.26527 1.5
      vertex 10.8112 7.61373 1.5
      vertex 10.8112 -7.61373 1.5
    endloop
  endfacet
  facet normal 0 0 1
    outer loop
      vertex 10.75 8 1.5
      vertex -15 12.5 1.5
      vertex 10.8112 7.61373 1.5
    endloop
  endfacet
  facet normal 0 0 1
    outer loop
      vertex 10.8112 8.38627 1.5
      vertex -15 12.5 1.5
      vertex 10.75 8 1.5
    endloop
  endfacet
  facet normal 0 0 1
    outer loop
      vertex 12 9.25 1.5
      vertex 12.3863 9.18882 1.5
      vertex 15 12.5 1.5
    endloop
  endfacet
  facet normal 0 0 1
    outer loop
      vertex 10.9887 8.73473 1.5
      vertex -15 12.5 1.5
      vertex 10.8112 8.38627 1.5
    endloop
  endfacet
  facet normal 0 0 1
    outer loop
      vertex 11.2653 9.01127 1.5
      vertex -15 12.5 1.5
      vertex 10.9887 8.73473 1.5
    endloop
  endfacet
  facet normal 0 0 1
    outer loop
      vertex 15 12.5 1.5
      vertex -15 12.5 1.5
      vertex 11.2653 9.01127 1.5
    endloop
  endfacet
  facet normal 0 0 1
    outer loop
      vertex 13.1888 7.61373 1.5
      vertex 13.0113 7.26527 1.5
      vertex 10.8112 -7.61373 1.5
    endloop
  endfacet
  facet normal 0 0 1
    outer loop
      vertex 12.3863 6.81118 1.5
      vertex 12 6.75 1.5
      vertex 10.8112 -7.61373 1.5
    endloop
  endfacet
  facet normal 0 0 1
    outer loop
      vertex 15 12.5 1.5
      vertex 12.3863 9.18882 1.5
      vertex 12.7347 9.01127 1.5
    endloop
  endfacet
  facet normal 0 0 1
    outer loop
      vertex 12.7347 6.98873 1.5
      vertex 12.3863 6.81118 1.5
      vertex 10.8112 -7.61373 1.5
    endloop
  endfacet
  facet normal 0 0 1
    outer loop
      vertex 15 12.5 1.5
      vertex 12.7347 9.01127 1.5
      vertex 13.0113 8.73473 1.5
    endloop
  endfacet
  facet normal 0 0 1
    outer loop
      vertex 13.0113 7.26527 1.5
      vertex 12.7347 6.98873 1.5
      vertex 10.8112 -7.61373 1.5
    endloop
  endfacet
  facet normal 0 0 1
    outer loop
      vertex 15 12.5 1.5
      vertex 13.0113 8.73473 1.5
      vertex 13.1888 8.38627 1.5
    endloop
  endfacet
  facet normal 0 0 1
    outer loop
      vertex 15 12.5 1.5
      vertex 13.25 8 1.5
      vertex 10.8112 -7.61373 1.5
    endloop
  endfacet
  facet normal 0 0 1
    outer loop
      vertex 15 12.5 1.5
      vertex 13.1888 8.38627 1.5
      vertex 13.25 8 1.5
    endloop
  endfacet
  facet normal 0 0 1
    outer loop
      vertex 13.25 8 1.5
      vertex 13.1888 7.61373 1.5
      vertex 10.8112 -7.61373 1.5
    endloop
  endfacet
  facet normal 0 0 1
    outer loop
      vertex 12 6.75 1.5
      vertex 11.6137 6.81118 1.5
      vertex 10.8112 -7.61373 1.5
    endloop
  endfacet
  facet normal 0 0 1
    outer loop
      vertex 11.6137 6.81118 1.5
      vertex 11.2653 6.98873 1.5
      vertex 10.8112 -7.61373 1.5
    endloop
  endfacet
  facet normal 0 0 1
    outer loop
      vertex 11.2653 6.98873 1.5
      vertex 10.9887 7.26527 1.5
      vertex 10.8112 -7.61373 1.5
    endloop
  endfacet
  facet normal 0 0 1
    outer loop
      vertex -13.25 -8 1.5
      vertex -13.1888 -7.61373 1.5
      vertex -15 12.5 1.5
    endloop
  endfacet
  facet normal 0 0 1
    outer loop
      vertex -11.2653 6.98873 1.5
      vertex -11.6137 6.81118 1.5
      vertex 15 -12.5 1.5
    endloop
  endfacet
  facet normal 1 0 0
    outer loop
      vertex 15 -12.5 1.5
      vertex 15 -12.5 -1.5
      vertex 15 12.5 -1.5
    endloop
  endfacet
  facet normal 1 0 0
    outer loop
      vertex 15 12.5 1.5
      vertex 15 -12.5 1.5
      vertex 15 12.5 -1.5
    endloop
  endfacet
  facet normal 0.987688 -0.156434 0
    outer loop
      vertex -13.1888 -7.61373 -1.5
      vertex -13.1888 -7.61373 1.5
      vertex -13.25 -8 1.5
    endloop
  endfacet
  facet normal 0.987688 -0.156434 0
    outer loop
      vertex -13.25 -8 -1.5
      vertex -13.1888 -7.61373 -1.5
      vertex -13.25 -8 1.5
    endloop
  endfacet
  facet normal 0.987688 0.156434 0
    outer loop
      vertex -13.25 -8 1.5
      vertex -13.1888 -8.38627 1.5
      vertex -13.1888 -8.38627 -1.5
    endloop
  endfacet
  facet normal 0.987688 0.156434 0
    outer loop
      vertex -13.25 -8 -1.5
      vertex -13.25 -8 1.5
      vertex -13.1888 -8.38627 -1.5
    endloop
  endfacet
  facet normal 0.891006 -0.453991 0
    outer loop
      vertex -13.0113 -7.26527 -1.5
      vertex -13.0113 -7.26527 1.5
      vertex -13.1888 -7.61373 1.5
    endloop
  endfacet
  facet normal 0.891006 -0.453991 0
    outer loop
      vertex -13.1888 -7.61373 -1.5
      vertex -13.0113 -7.26527 -1.5
      vertex -13.1888 -7.61373 1.5
    endloop
  endfacet
  facet normal 0.707107 -0.707107 0
    outer loop
      vertex -12.7347 -6.98873 -1.5
      vertex -12.7347 -6.98873 1.5
      vertex -13.0113 -7.26527 1.5
    endloop
  endfacet
  facet normal 0.707107 -0.707107 0
    outer loop
      vertex -13.0113 -7.26527 -1.5
      vertex -12.7347 -6.98873 -1.5
      vertex -13.0113 -7.26527 1.5
    endloop
  endfacet
  facet normal 0.453991 -0.891006 0
    outer loop
      vertex -12.3863 -6.81118 -1.5
      vertex -12.3863 -6.81118 1.5
      vertex -12.7347 -6.98873 1.5
    endloop
  endfacet
  facet normal 0.453991 -0.891006 0
    outer loop
      vertex -12.7347 -6.98873 -1.5
      vertex -12.3863 -6.81118 -1.5
      vertex -12.7347 -6.98873 1.5
    endloop
  endfacet
  facet normal 0.156434 -0.987688 0
    outer loop
      vertex -12 -6.75 -1.5
      vertex -12 -6.75 1.5
      vertex -12.3863 -6.81118 1.5
    endloop
  endfacet
  facet normal 0.156434 -0.987688 0
    outer loop
      vertex -12.3863 -6.81118 -1.5
      vertex -12 -6.75 -1.5
      vertex -12.3863 -6.81118 1.5
    endloop
  endfacet
  facet normal -0.156434 -0.987688 0
    outer loop
      vertex -11.6137 -6.81118 -1.5
      vertex -11.6137 -6.81118 1.5
      vertex -12 -6.75 1.5
    endloop
  endfacet
  facet normal -0.156434 -0.987688 0
    outer loop
      vertex -12 -6.75 -1.5
      vertex -11.6137 -6.81118 -1.5
      vertex -12 -6.75 1.5
    endloop
  endfacet
  facet normal -0.453991 -0.891006 0
    outer loop
      vertex -11.2653 -6.98873 -1.5
      vertex -11.2653 -6.98873 1.5
      vertex -11.6137 -6.81118 1.5
    endloop
  endfacet
  facet normal -0.453991 -0.891006 0
    outer loop
      vertex -11.6137 -6.81118 -1.5
      vertex -11.2653 -6.98873 -1.5
      vertex -11.6137 -6.81118 1.5
    endloop
  endfacet
  facet normal -0.707107 -0.707107 0
    outer loop
      vertex -10.9887 -7.26527 -1.5
      vertex -10.9887 -7.26527 1.5
      vertex -11.2653 -6.98873 1.5
    endloop
  endfacet
  facet normal -0.707107 -0.707107 0
    outer loop
      vertex -11.2653 -6.98873 -1.5
      vertex -10.9887 -7.26527 -1.5
      vertex -11.2653 -6.98873 1.5
    endloop
  endfacet
  facet normal -0.891006 -0.453991 0
    outer loop
      vertex -10.8112 -7.61373 1.5
      vertex -10.9887 -7.26527 1.5
      vertex -10.8112 -7.61373 -1.5
    endloop
  endfacet
  facet normal -0.891006 -0.453991 0
    outer loop
      vertex -10.8112 -7.61373 -1.5
      vertex -10.9887 -7.26527 1.5
      vertex -10.9887 -7.26527 -1.5
    endloop
  endfacet
  facet normal -0.987688 -0.156434 0
    outer loop
      vertex -10.75 -8 1.5
      vertex -10.8112 -7.61373 1.5
      vertex -10.75 -8 -1.5
    endloop
  endfacet
  facet normal -0.987688 -0.156434 0
    outer loop
      vertex -10.75 -8 -1.5
      vertex -10.8112 -7.61373 1.5
      vertex -10.8112 -7.61373 -1.5
    endloop
  endfacet
  facet normal -0.987688 0.156434 0
    outer loop
      vertex -10.75 -8 1.5
      vertex -10.75 -8 -1.5
      vertex -10.8112 -8.38627 1.5
    endloop
  endfacet
  facet normal -0.987688 0.156434 0
    outer loop
      vertex -10.8112 -8.38627 1.5
      vertex -10.75 -8 -1.5
      vertex -10.8112 -8.38627 -1.5
    endloop
  endfacet
  facet normal -0.891006 0.453991 0
    outer loop
      vertex -10.8112 -8.38627 1.5
      vertex -10.8112 -8.38627 -1.5
      vertex -10.9887 -8.73473 1.5
    endloop
  endfacet
  facet normal -0.891006 0.453991 0
    outer loop
      vertex -10.9887 -8.73473 1.5
      vertex -10.8112 -8.38627 -1.5
      vertex -10.9887 -8.73473 -1.5
    endloop
  endfacet
  facet normal -0.707107 0.707107 0
    outer loop
      vertex -10.9887 -8.73473 1.5
      vertex -10.9887 -8.73473 -1.5
      vertex -11.2653 -9.01127 1.5
    endloop
  endfacet
  facet normal -0.707107 0.707107 0
    outer loop
      vertex -11.2653 -9.01127 1.5
      vertex -10.9887 -8.73473 -1.5
      vertex -11.2653 -9.01127 -1.5
    endloop
  endfacet
  facet normal -0.453991 0.891006 0
    outer loop
      vertex -11.2653 -9.01127 1.5
      vertex -11.2653 -9.01127 -1.5
      vertex -11.6137 -9.18882 1.5
    endloop
  endfacet
  facet normal -0.453991 0.891006 0
    outer loop
      vertex -11.6137 -9.18882 1.5
      vertex -11.2653 -9.01127 -1.5
      vertex -11.6137 -9.18882 -1.5
    endloop
  endfacet
  facet normal -0.156434 0.987688 0
    outer loop
      vertex -11.6137 -9.18882 1.5
      vertex -11.6137 -9.18882 -1.5
      vertex -12 -9.25 1.5
    endloop
  endfacet
  facet normal -0.156434 0.987688 0
    outer loop
      vertex -12 -9.25 1.5
      vertex -11.6137 -9.18882 -1.5
      vertex -12 -9.25 -1.5
    endloop
  endfacet
  facet normal 0.156434 0.987688 0
    outer loop
      vertex -12 -9.25 1.5
      vertex -12 -9.25 -1.5
      vertex -12.3863 -9.18882 1.5
    endloop
  endfacet
  facet normal 0.156434 0.987688 0
    outer loop
      vertex -12.3863 -9.18882 1.5
      vertex -12 -9.25 -1.5
      vertex -12.3863 -9.18882 -1.5
    endloop
  endfacet
  facet normal 0.453991 0.891006 0
    outer loop
      vertex -12.3863 -9.18882 1.5
      vertex -12.3863 -9.18882 -1.5
      vertex -12.7347 -9.01127 1.5
    endloop
  endfacet
  facet normal 0.453991 0.891006 0
    outer loop
      vertex -12.7347 -9.01127 1.5
      vertex -12.3863 -9.18882 -1.5
      vertex -12.7347 -9.01127 -1.5
    endloop
  endfacet
  facet normal 0.707107 0.707107 0
    outer loop
      vertex -12.7347 -9.01127 1.5
      vertex -12.7347 -9.01127 -1.5
      vertex -13.0113 -8.73473 1.5
    endloop
  endfacet
  facet normal 0.707107 0.707107 0
    outer loop
      vertex -13.0113 -8.73473 1.5
      vertex -12.7347 -9.01127 -1.5
      vertex -13.0113 -8.73473 -1.5
    endloop
  endfacet
  facet normal 0.891006 0.453991 0
    outer loop
      vertex -13.1888 -8.38627 1.5
      vertex -13.0113 -8.73473 1.5
      vertex -13.0113 -8.73473 -1.5
    endloop
  endfacet
  facet normal 0.891006 0.453991 0
    outer loop
      vertex -13.1888 -8.38627 -1.5
      vertex -13.1888 -8.38627 1.5
      vertex -13.0113 -8.73473 -1.5
    endloop
  endfacet
  facet normal 0.987688 -0.156434 0
    outer loop
      vertex -13.1888 8.38627 -1.5
      vertex -13.1888 8.38627 1.5
      vertex -13.25 8 1.5
    endloop
  endfacet
  facet normal 0.987688 -0.156434 0
    outer loop
      vertex -13.25 8 -1.5
      vertex -13.1888 8.38627 -1.5
      vertex -13.25 8 1.5
    endloop
  endfacet
  facet normal 0.987688 0.156434 0
    outer loop
      vertex -13.25 8 1.5
      vertex -13.1888 7.61373 1.5
      vertex -13.1888 7.61373 -1.5
    endloop
  endfacet
  facet normal 0.987688 0.156434 0
    outer loop
      vertex -13.25 8 -1.5
      vertex -13.25 8 1.5
      vertex -13.1888 7.61373 -1.5
    endloop
  endfacet
  facet normal 0.891006 -0.453991 0
    outer loop
      vertex -13.0113 8.73473 -1.5
      vertex -13.0113 8.73473 1.5
      vertex -13.1888 8.38627 1.5
    endloop
  endfacet
  facet normal 0.891006 -0.453991 0
    outer loop
      vertex -13.1888 8.38627 -1.5
      vertex -13.0113 8.73473 -1.5
      vertex -13.1888 8.38627 1.5
    endloop
  endfacet
  facet normal 0.707107 -0.707107 0
    outer loop
      vertex -12.7347 9.01127 -1.5
      vertex -12.7347 9.01127 1.5
      vertex -13.0113 8.73473 1.5
    endloop
  endfacet
  facet normal 0.707107 -0.707107 0
    outer loop
      vertex -13.0113 8.73473 -1.5
      vertex -12.7347 9.01127 -1.5
      vertex -13.0113 8.73473 1.5
    endloop
  endfacet
  facet normal 0.453991 -0.891006 0
    outer loop
      vertex -12.3863 9.18882 -1.5
      vertex -12.3863 9.18882 1.5
      vertex -12.7347 9.01127 1.5
    endloop
  endfacet
  facet normal 0.453991 -0.891006 0
    outer loop
      vertex -12.7347 9.01127 -1.5
      vertex -12.3863 9.18882 -1.5
      vertex -12.7347 9.01127 1.5
    endloop
  endfacet
  facet normal 0.156434 -0.987688 0
    outer loop
      vertex -12 9.25 -1.5
      vertex -12 9.25 1.5
      vertex -12.3863 9.18882 1.5
    endloop
  endfacet
  facet normal 0.156434 -0.987688 0
    outer loop
      vertex -12.3863 9.18882 -1.5
      vertex -12 9.25 -1.5
      vertex -12.3863 9.18882 1.5
    endloop
  endfacet
  facet normal -0.156434 -0.987688 0
    outer loop
      vertex -11.6137 9.18882 -1.5
      vertex -11.6137 9.18882 1.5
      vertex -12 9.25 1.5
    endloop
  endfacet
  facet normal -0.156434 -0.987688 0
    outer loop
      vertex -12 9.25 -1.5
      vertex -11.6137 9.18882 -1.5
      vertex -12 9.25 1.5
    endloop
  endfacet
  facet normal -0.453991 -0.891006 0
    outer loop
      vertex -11.2653 9.01127 -1.5
      vertex -11.2653 9.01127 1.5
      vertex -11.6137 9.18882 1.5
    endloop
  endfacet
  facet normal -0.453991 -0.891006 0
    outer loop
      vertex -11.6137 9.18882 -1.5
      vertex -11.2653 9.01127 -1.5
      vertex -11.6137 9.18882 1.5
    endloop
  endfacet
  facet normal -0.707107 -0.707107 0
    outer loop
      vertex -10.9887 8.73473 -1.5
      vertex -10.9887 8.73473 1.5
      vertex -11.2653 9.01127 1.5
    endloop
  endfacet
  facet normal -0.707107 -0.707107 0
    outer loop
      vertex -11.2653 9.01127 -1.5
      vertex -10.9887 8.73473 -1.5
      vertex -11.2653 9.01127 1.5
    endloop
  endfacet
  facet normal -0.891006 -0.453991 0
    outer loop
      vertex -10.8112 8.38627 1.5
      vertex -10.9887 8.73473 1.5
      vertex -10.8112 8.38627 -1.5
    endloop
  endfacet
  facet normal -0.891006 -0.453991 0
    outer loop
      vertex -10.8112 8.38627 -1.5
      vertex -10.9887 8.73473 1.5
      vertex -10.9887 8.73473 -1.5
    endloop
  endfacet
  facet normal -0.987688 -0.156434 0
    outer loop
      vertex -10.75 8 1.5
      vertex -10.8112 8.38627 1.5
      vertex -10.75 8 -1.5
    endloop
  endfacet
  facet normal -0.987688 -0.156434 0
    outer loop
      vertex -10.75 8 -1.5
      vertex -10.8112 8.38627 1.5
      vertex -10.8112 8.38627 -1.5
    endloop
  endfacet
  facet normal -0.987688 0.156434 0
    outer loop
      vertex -10.75 8 1.5
      vertex -10.75 8 -1.5
      vertex -10.8112 7.61373 1.5
    endloop
  endfacet
  facet normal -0.987688 0.156434 0
    outer loop
      vertex -10.8112 7.61373 1.5
      vertex -10.75 8 -1.5
      vertex -10.8112 7.61373 -1.5
    endloop
  endfacet
  facet normal -0.891006 0.453991 0
    outer loop
      vertex -10.8112 7.61373 1.5
      vertex -10.8112 7.61373 -1.5
      vertex -10.9887 7.26527 1.5
    endloop
  endfacet
  facet normal -0.891006 0.453991 0
    outer loop
      vertex -10.9887 7.26527 1.5
      vertex -10.8112 7.61373 -1.5
      vertex -10.9887 7.26527 -1.5
    endloop
  endfacet
  facet normal -0.707107 0.707107 0
    outer loop
      vertex -10.9887 7.26527 1.5
      vertex -10.9887 7.26527 -1.5
      vertex -11.2653 6.98873 1.5
    endloop
  endfacet
  facet normal -0.707107 0.707107 0
    outer loop
      vertex -11.2653 6.98873 1.5
      vertex -10.9887 7.26527 -1.5
      vertex -11.2653 6.98873 -1.5
    endloop
  endfacet
  facet normal -0.453991 0.891006 0
    outer loop
      vertex -11.2653 6.98873 1.5
      vertex -11.2653 6.98873 -1.5
      vertex -11.6137 6.81118 1.5
    endloop
  endfacet
  facet normal -0.453991 0.891006 0
    outer loop
      vertex -11.6137 6.81118 1.5
      vertex -11.2653 6.98873 -1.5
      vertex -11.6137 6.81118 -1.5
    endloop
  endfacet
  facet normal -0.156434 0.987688 0
    outer loop
      vertex -11.6137 6.81118 1.5
      vertex -11.6137 6.81118 -1.5
      vertex -12 6.75 1.5
    endloop
  endfacet
  facet normal -0.156434 0.987688 0
    outer loop
      vertex -12 6.75 1.5
      vertex -11.6137 6.81118 -1.5
      vertex -12 6.75 -1.5
    endloop
  endfacet
  facet normal 0.156434 0.987688 0
    outer loop
      vertex -12 6.75 1.5
      vertex -12 6.75 -1.5
      vertex -12.3863 6.81118 1.5
    endloop
  endfacet
  facet normal 0.156434 0.987688 0
    outer loop
      vertex -12.3863 6.81118 1.5
      vertex -12 6.75 -1.5
      vertex -12.3863 6.81118 -1.5
    endloop
  endfacet
  facet normal 0.453991 0.891006 0
    outer loop
      vertex -12.3863 6.81118 1.5
      vertex -12.3863 6.81118 -1.5
      vertex -12.7347 6.98873 1.5
    endloop
  endfacet
  facet normal 0.453991 0.891006 0
    outer loop
      vertex -12.7347 6.98873 1.5
      vertex -12.3863 6.81118 -1.5
      vertex -12.7347 6.98873 -1.5
    endloop
  endfacet
  facet normal 0.707107 0.707107 0
    outer loop
      vertex -12.7347 6.98873 1.5
      vertex -12.7347 6.98873 -1.5
      vertex -13.0113 7.26527 1.5
    endloop
  endfacet
  facet normal 0.707107 0.707107 0
    outer loop
      vertex -13.0113 7.26527 1.5
      vertex -12.7347 6.98873 -1.5
      vertex -13.0113 7.26527 -1.5
    endloop
  endfacet
  facet normal 0.891006 0.453991 0
    outer loop
      vertex -13.1888 7.61373 1.5
      vertex -13.0113 7.26527 1.5
      vertex -13.0113 7.26527 -1.5
    endloop
  endfacet
  facet normal 0.891006 0.453991 0
    outer loop
      vertex -13.1888 7.61373 -1.5
      vertex -13.1888 7.61373 1.5
      vertex -13.0113 7.26527 -1.5
    endloop
  endfacet
  facet normal 0.987688 -0.156434 0
    outer loop
      vertex 10.8112 -7.61373 -1.5
      vertex 10.8112 -7.61373 1.5
      vertex 10.75 -8 1.5
    endloop
  endfacet
  facet normal 0.987688 -0.156434 0
    outer loop
      vertex 10.75 -8 -1.5
      vertex 10.8112 -7.61373 -1.5
      vertex 10.75 -8 1.5
    endloop
  endfacet
  facet normal 0.987688 0.156434 0
    outer loop
      vertex 10.75 -8 1.5
      vertex 10.8112 -8.38627 1.5
      vertex 10.8112 -8.38627 -1.5
    endloop
  endfacet
  facet normal 0.987688 0.156434 0
    outer loop
      vertex 10.75 -8 -1.5
      vertex 10.75 -8 1.5
      vertex 10.8112 -8.38627 -1.5
    endloop
  endfacet
  facet normal 0.891006 -0.453991 0
    outer loop
      vertex 10.9887 -7.26527 -1.5
      vertex 10.9887 -7.26527 1.5
      vertex 10.8112 -7.61373 1.5
    endloop
  endfacet
  facet normal 0.891006 -0.453991 0
    outer loop
      vertex 10.8112 -7.61373 -1.5
      vertex 10.9887 -7.26527 -1.5
      vertex 10.8112 -7.61373 1.5
    endloop
  endfacet
  facet normal 0.707107 -0.707107 0
    outer loop
      vertex 11.2653 -6.98873 -1.5
      vertex 11.2653 -6.98873 1.5
      vertex 10.9887 -7.26527 1.5
    endloop
  endfacet
  facet normal 0.707107 -0.707107 0
    outer loop
      vertex 10.9887 -7.26527 -1.5
      vertex 11.2653 -6.98873 -1.5
      vertex 10.9887 -7.26527 1.5
    endloop
  endfacet
  facet normal 0.453991 -0.891006 0
    outer loop
      vertex 11.6137 -6.81118 -1.5
      vertex 11.6137 -6.81118 1.5
      vertex 11.2653 -6.98873 1.5
    endloop
  endfacet
  facet normal 0.453991 -0.891006 0
    outer loop
      vertex 11.2653 -6.98873 -1.5
      vertex 11.6137 -6.81118 -1.5
      vertex 11.2653 -6.98873 1.5
    endloop
  endfacet
  facet normal 0.156434 -0.987688 0
    outer loop
      vertex 12 -6.75 -1.5
      vertex 12 -6.75 1.5
      vertex 11.6137 -6.81118 1.5
    endloop
  endfacet
  facet normal 0.156434 -0.987688 0
    outer loop
      vertex 11.6137 -6.81118 -1.5
      vertex 12 -6.75 -1.5
      vertex 11.6137 -6.81118 1.5
    endloop
  endfacet
  facet normal -0.156434 -0.987688 0
    outer loop
      vertex 12.3863 -6.81118 -1.5
      vertex 12.3863 -6.81118 1.5
      vertex 12 -6.75 1.5
    endloop
  endfacet
  facet normal -0.156434 -0.987688 0
    outer loop
      vertex 12 -6.75 -1.5
      vertex 12.3863 -6.81118 -1.5
      vertex 12 -6.75 1.5
    endloop
  endfacet
  facet normal -0.453991 -0.891006 0
    outer loop
      vertex 12.7347 -6.98873 -1.5
      vertex 12.7347 -6.98873 1.5
      vertex 12.3863 -6.81118 1.5
    endloop
  endfacet
  facet normal -0.453991 -0.891006 0
    outer loop
      vertex 12.3863 -6.81118 -1.5
      vertex 12.7347 -6.98873 -1.5
      vertex 12.3863 -6.81118 1.5
    endloop
  endfacet
  facet normal -0.707107 -0.707107 0
    outer loop
      vertex 13.0113 -7.26527 -1.5
      vertex 13.0113 -7.26527 1.5
      vertex 12.7347 -6.98873 1.5
    endloop
  endfacet
  facet normal -0.707107 -0.707107 0
    outer loop
      vertex 12.7347 -6.98873 -1.5
      vertex 13.0113 -7.26527 -1.5
      vertex 12.7347 -6.98873 1.5
    endloop
  endfacet
  facet normal -0.891006 -0.453991 0
    outer loop
      vertex 13.1888 -7.61373 1.5
      vertex 13.0113 -7.26527 1.5
      vertex 13.1888 -7.61373 -1.5
    endloop
  endfacet
  facet normal -0.891006 -0.453991 0
    outer loop
      vertex 13.1888 -7.61373 -1.5
      vertex 13.0113 -7.26527 1.5
      vertex 13.0113 -7.26527 -1.5
    endloop
  endfacet
  facet normal -0.987688 -0.156434 0
    outer loop
      vertex 13.25 -8 1.5
      vertex 13.1888 -7.61373 1.5
      vertex 13.25 -8 -1.5
    endloop
  endfacet
  facet normal -0.987688 -0.156434 0
    outer loop
      vertex 13.25 -8 -1.5
      vertex 13.1888 -7.61373 1.5
      vertex 13.1888 -7.61373 -1.5
    endloop
  endfacet
  facet normal -0.987688 0.156434 0
    outer loop
      vertex 13.25 -8 1.5
      vertex 13.25 -8 -1.5
      vertex 13.1888 -8.38627 1.5
    endloop
  endfacet
  facet normal -0.987688 0.156434 0
    outer loop
      vertex 13.1888 -8.38627 1.5
      vertex 13.25 -8 -1.5
      vertex 13.1888 -8.38627 -1.5
    endloop
  endfacet
  facet normal -0.891006 0.453991 0
    outer loop
      vertex 13.1888 -8.38627 1.5
      vertex 13.1888 -8.38627 -1.5
      vertex 13.0113 -8.73473 1.5
    endloop
  endfacet
  facet normal -0.891006 0.453991 0
    outer loop
      vertex 13.0113 -8.73473 1.5
      vertex 13.1888 -8.38627 -1.5
      vertex 13.0113 -8.73473 -1.5
    endloop
  endfacet
  facet normal -0.707107 0.707107 0
    outer loop
      vertex 13.0113 -8.73473 1.5
      vertex 13.0113 -8.73473 -1.5
      vertex 12.7347 -9.01127 1.5
    endloop
  endfacet
  facet normal -0.707107 0.707107 0
    outer loop
      vertex 12.7347 -9.01127 1.5
      vertex 13.0113 -8.73473 -1.5
      vertex 12.7347 -9.01127 -1.5
    endloop
  endfacet
  facet normal -0.453991 0.891006 0
    outer loop
      vertex 12.7347 -9.01127 1.5
      vertex 12.7347 -9.01127 -1.5
      vertex 12.3863 -9.18882 1.5
    endloop
  endfacet
  facet normal -0.453991 0.891006 0
    outer loop
      vertex 12.3863 -9.18882 1.5
      vertex 12.7347 -9.01127 -1.5
      vertex 12.3863 -9.18882 -1.5
    endloop
  endfacet
  facet normal -0.156434 0.987688 0
    outer loop
      vertex 12.3863 -9.18882 1.5
      vertex 12.3863 -9.18882 -1.5
      vertex 12 -9.25 1.5
    endloop
  endfacet
  facet normal -0.156434 0.987688 0
    outer loop
      vertex 12 -9.25 1.5
      vertex 12.3863 -9.18882 -1.5
      vertex 12 -9.25 -1.5
    endloop
  endfacet
  facet normal 0.156434 0.987688 0
    outer loop
      vertex 12 -9.25 1.5
      vertex 12 -9.25 -1.5
      vertex 11.6137 -9.18882 1.5
    endloop
  endfacet
  facet normal 0.156434 0.987688 0
    outer loop
      vertex 11.6137 -9.18882 1.5
      vertex 12 -9.25 -1.5
      vertex 11.6137 -9.18882 -1.5
    endloop
  endfacet
  facet normal 0.453991 0.891006 0
    outer loop
      vertex 11.6137 -9.18882 1.5
      vertex 11.6137 -9.18882 -1.5
      vertex 11.2653 -9.01127 1.5
    endloop
  endfacet
  facet normal 0.453991 0.891006 0
    outer loop
      vertex 11.2653 -9.01127 1.5
      vertex 11.6137 -9.18882 -1.5
      vertex 11.2653 -9.01127 -1.5
    endloop
  endfacet
  facet normal 0.707107 0.707107 0
    outer loop
      vertex 11.2653 -9.01127 1.5
      vertex 11.2653 -9.01127 -1.5
      vertex 10.9887 -8.73473 1.5
    endloop
  endfacet
  facet normal 0.707107 0.707107 0
    outer loop
      vertex 10.9887 -8.73473 1.5
      vertex 11.2653 -9.01127 -1.5
      vertex 10.9887 -8.73473 -1.5
    endloop
  endfacet
  facet normal 0.891006 0.453991 0
    outer loop
      vertex 10.8112 -8.38627 1.5
      vertex 10.9887 -8.73473 1.5
      vertex 10.9887 -8.73473 -1.5
    endloop
  endfacet
  facet normal 0.891006 0.453991 0
    outer loop
      vertex 10.8112 -8.38627 -1.5
      vertex 10.8112 -8.38627 1.5
      vertex 10.9887 -8.73473 -1.5
    endloop
  endfacet
  facet normal 0.987688 -0.156434 0
    outer loop
      vertex 10.8112 8.38627 -1.5
      vertex 10.8112 8.38627 1.5
      vertex 10.75 8 1.5
    endloop
  endfacet
  facet normal 0.987688 -0.156434 0
    outer loop
      vertex 10.75 8 -1.5
      vertex 10.8112 8.38627 -1.5
      vertex 10.75 8 1.5
    endloop
  endfacet
  facet normal 0.987688 0.156434 0
    outer loop
      vertex 10.75 8 1.5
      vertex 10.8112 7.61373 1.5
      vertex 10.8112 7.61373 -1.5
    endloop
  endfacet
  facet normal 0.987688 0.156434 0
    outer loop
      vertex 10.75 8 -1.5
      vertex 10.75 8 1.5
      vertex 10.8112 7.61373 -1.5
    endloop
  endfacet
  facet normal 0.891006 -0.453991 0
    outer loop
      vertex 10.9887 8.73473 -1.5
      vertex 10.9887 8.73473 1.5
      vertex 10.8112 8.38627 1.5
    endloop
  endfacet
  facet normal 0.891006 -0.453991 0
    outer loop
      vertex 10.8112 8.38627 -1.5
      vertex 10.9887 8.73473 -1.5
      vertex 10.8112 8.38627 1.5
    endloop
  endfacet
  facet normal 0.707107 -0.707107 0
    outer loop
      vertex 11.2653 9.01127 -1.5
      vertex 11.2653 9.01127 1.5
      vertex 10.9887 8.73473 1.5
    endloop
  endfacet
  facet normal 0.707107 -0.707107 0
    outer loop
      vertex 10.9887 8.73473 -1.5
      vertex 11.2653 9.01127 -1.5
      vertex 10.9887 8.73473 1.5
    endloop
  endfacet
  facet normal 0.453991 -0.891006 0
    outer loop
      vertex 11.6137 9.18882 -1.5
      vertex 11.6137 9.18882 1.5
      vertex 11.2653 9.01127 1.5
    endloop
  endfacet
  facet normal 0.453991 -0.891006 0
    outer loop
      vertex 11.2653 9.01127 -1.5
      vertex 11.6137 9.18882 -1.5
      vertex 11.2653 9.01127 1.5
    endloop
  endfacet
  facet normal 0.156434 -0.987688 0
    outer loop
      vertex 12 9.25 -1.5
      vertex 12 9.25 1.5
      vertex 11.6137 9.18882 1.5
    endloop
  endfacet
  facet normal 0.156434 -0.987688 0
    outer loop
      vertex 11.6137 9.18882 -1.5
      vertex 12 9.25 -1.5
      vertex 11.6137 9.18882 1.5
    endloop
  endfacet
  facet normal -0.156434 -0.987688 0
    outer loop
      vertex 12.3863 9.18882 -1.5
      vertex 12.3863 9.18882 1.5
      vertex 12 9.25 1.5
    endloop
  endfacet
  facet normal -0.156434 -0.987688 0
    outer loop
      vertex 12 9.25 -1.5
      vertex 12.3863 9.18882 -1.5
      vertex 12 9.25 1.5
    endloop
  endfacet
  facet normal -0.453991 -0.891006 0
    outer loop
      vertex 12.7347 9.01127 -1.5
      vertex 12.7347 9.01127 1.5
      vertex 12.3863 9.18882 1.5
    endloop
  endfacet
  facet normal -0.453991 -0.891006 0
    outer loop
      vertex 12.3863 9.18882 -1.5
      vertex 12.7347 9.01127 -1.5
      vertex 12.3863 9.18882 1.5
    endloop
  endfacet
  facet normal -0.707107 -0.707107 0
    outer loop
      vertex 13.0113 8.73473 -1.5
      vertex 13.0113 8.73473 1.5
      vertex 12.7347 9.01127 1.5
    endloop
  endfacet
  facet normal -0.707107 -0.707107 0
    outer loop
      vertex 12.7347 9.01127 -1.5
      vertex 13.0113 8.73473 -1.5
      vertex 12.7347 9.01127 1.5
    endloop
  endfacet
  facet normal -0.891006 -0.453991 0
    outer loop
      vertex 13.1888 8.38627 1.5
      vertex 13.0113 8.73473 1.5
      vertex 13.1888 8.38627 -1.5
    endloop
  endfacet
  facet normal -0.891006 -0.453991 0
    outer loop
      vertex 13.1888 8.38627 -1.5
      vertex 13.0113 8.73473 1.5
      vertex 13.0113 8.73473 -1.5
    endloop
  endfacet
  facet normal -0.987688 -0.156434 0
    outer loop
      vertex 13.25 8 1.5
      vertex 13.1888 8.38627 1.5
      vertex 13.25 8 -1.5
    endloop
  endfacet
  facet normal -0.987688 -0.156434 0
    outer loop
      vertex 13.25 8 -1.5
      vertex 13.1888 8.38627 1.5
      vertex 13.1888 8.38627 -1.5
    endloop
  endfacet
  facet normal -0.987688 0.156434 0
    outer loop
      vertex 13.25 8 1.5
      vertex 13.25 8 -1.5
      vertex 13.1888 7.61373 1.5
    endloop
  endfacet
  facet normal -0.987688 0.156434 0
    outer loop
      vertex 13.1888 7.61373 1.5
      vertex 13.25 8 -1.5
      vertex 13.1888 7.61373 -1.5
    endloop
  endfacet
  facet normal -0.891006 0.453991 0
    outer loop
      vertex 13.1888 7.61373 1.5
      vertex 13.1888 7.61373 -1.5
      vertex 13.0113 7.26527 1.5
    endloop
  endfacet
  facet normal -0.891006 0.453991 0
    outer loop
      vertex 13.0113 7.26527 1.5
      vertex 13.1888 7.61373 -1.5
      vertex 13.0113 7.26527 -1.5
    endloop
  endfacet
  facet normal -0.707107 0.707107 0
    outer loop
      vertex 13.0113 7.26527 1.5
      vertex 13.0113 7.26527 -1.5
      vertex 12.7347 6.98873 1.5
    endloop
  endfacet
  facet normal -0.707107 0.707107 0
    outer loop
      vertex 12.7347 6.98873 1.5
      vertex 13.0113 7.26527 -1.5
      vertex 12.7347 6.98873 -1.5
    endloop
  endfacet
  facet normal -0.453991 0.891006 0
    outer loop
      vertex 12.7347 6.98873 1.5
      vertex 12.7347 6.98873 -1.5
      vertex 12.3863 6.81118 1.5
    endloop
  endfacet
  facet normal -0.453991 0.891006 0
    outer loop
      vertex 12.3863 6.81118 1.5
      vertex 12.7347 6.98873 -1.5
      vertex 12.3863 6.81118 -1.5
    endloop
  endfacet
  facet normal -0.156434 0.987688 0
    outer loop
      vertex 12.3863 6.81118 1.5
      vertex 12.3863 6.81118 -1.5
      vertex 12 6.75 1.5
    endloop
  endfacet
  facet normal -0.156434 0.987688 0
    outer loop
      vertex 12 6.75 1.5
      vertex 12.3863 6.81118 -1.5
      vertex 12 6.75 -1.5
    endloop
  endfacet
  facet normal 0.156434 0.987688 0
    outer loop
      vertex 12 6.75 1.5
      vertex 12 6.75 -1.5
      vertex 11.6137 6.81118 1.5
    endloop
  endfacet
  facet normal 0.156434 0.987688 0
    outer loop
      vertex 11.6137 6.81118 1.5
      vertex 12 6.75 -1.5
      vertex 11.6137 6.81118 -1.5
    endloop
  endfacet
  facet normal 0.453991 0.891006 0
    outer loop
      vertex 11.6137 6.81118 1.5
      vertex 11.6137 6.81118 -1.5
      vertex 11.2653 6.98873 1.5
    endloop
  endfacet
  facet normal 0.453991 0.891006 0
    outer loop
      vertex 11.2653 6.98873 1.5
      vertex 11.6137 6.81118 -1.5
      vertex 11.2653 6.98873 -1.5
    endloop
  endfacet
  facet normal 0.707107 0.707107 0
    outer loop
      vertex 11.2653 6.98873 1.5
      vertex 11.2653 6.98873 -1.5
      vertex 10.9887 7.26527 1.5
    endloop
  endfacet
  facet normal 0.707107 0.707107 0
    outer loop
      vertex 10.9887 7.26527 1.5
      vertex 11.2653 6.98873 -1.5
      vertex 10.9887 7.26527 -1.5
    endloop
  endfacet
  facet normal 0.891006 0.453991 0
    outer loop
      vertex 10.8112 7.61373 1.5
      vertex 10.9887 7.26527 1.5
      vertex 10.9887 7.26527 -1.5
    endloop
  endfacet
  facet normal 0.891006 0.453991 0
    outer loop
      vertex 10.8112 7.61373 -1.5
      vertex 10.8112 7.61373 1.5
      vertex 10.9887 7.26527 -1.5
    endloop
  endfacet
endsolid OpenSCAD_Model
