solid OpenSCAD_Model
  facet normal -0.866025 -0.5 0
    outer loop
      vertex -14 0 0
      vertex -7 -12.1244 0
      vertex -14 0 3
    endloop
  endfacet
  facet normal -0.866025 -0.5 0
    outer loop
      vertex -14 0 3
      vertex -7 -12.1244 0
      vertex -7 -12.1244 3
    endloop
  endfacet
  facet normal 0 0 -1
    outer loop
      vertex 0.463525 9.42658 0
      vertex -7 12.1244 0
      vertex 107 12.1244 0
    endloop
  endfacet
  facet normal 0 0 -1
    outer loop
      vertex 90.7865 -0.881678 0
      vertex 66.75 0 0
      vertex 90.7865 0.881678 0
    endloop
  endfacet
  facet normal 0 0 -1
    outer loop
      vertex 100.482 -3.97083 0
      vertex 114 0 0
      vertex 107 -12.1244 0
    endloop
  endfacet
  facet normal 0 0 -1
    outer loop
      vertex -14 0 0
      vertex -7 12.1244 0
      vertex -9.21352 0.881678 0
    endloop
  endfacet
  facet normal 0 0 -1
    outer loop
      vertex -14 0 0
      vertex -9.21352 0.881678 0
      vertex -9.21352 -0.881678 0
    endloop
  endfacet
  facet normal 0 0 -1
    outer loop
      vertex -14 0 0
      vertex -9.21352 -0.881678 0
      vertex -7 -12.1244 0
    endloop
  endfacet
  facet normal 0 0 -1
    outer loop
      vertex -3.88377 -0.957263 0
      vertex -6.5 0 0
      vertex -3.88377 0.957263 0
    endloop
  endfacet
  facet normal 0 0 -1
    outer loop
      vertex -6.5 0 0
      vertex -7 -12.1244 0
      vertex -7.53647 -1.42658 0
    endloop
  endfacet
  facet normal 0 0 -1
    outer loop
      vertex -7.53647 1.42658 0
      vertex -7 12.1244 0
      vertex -6.5 0 0
    endloop
  endfacet
  facet normal 0 0 -1
    outer loop
      vertex -9.21352 0.881678 0
      vertex -7 12.1244 0
      vertex -7.53647 1.42658 0
    endloop
  endfacet
  facet normal 0 0 -1
    outer loop
      vertex -6.5 0 0
      vertex -7 12.1244 0
      vertex -3.88377 0.957263 0
    endloop
  endfacet
  facet normal 0 0 -1
    outer loop
      vertex -7 -12.1244 0
      vertex -6.5 0 0
      vertex -3.88377 -0.957263 0
    endloop
  endfacet
  facet normal 0 0 -1
    outer loop
      vertex 3.54182 1.85889 0
      vertex 8.46352 1.42658 0
      vertex 6.78647 0.881678 0
    endloop
  endfacet
  facet normal 0 0 -1
    outer loop
      vertex -7 -12.1244 0
      vertex -3.88377 -0.957263 0
      vertex -2.99404 -2.65249 0
    endloop
  endfacet
  facet normal 0 0 -1
    outer loop
      vertex -7 -12.1244 0
      vertex -2.99404 -2.65249 0
      vertex -1.41842 -3.74006 0
    endloop
  endfacet
  facet normal 0 0 -1
    outer loop
      vertex 4 0 0
      vertex 6.78647 -0.881678 0
      vertex 3.54182 -1.85889 0
    endloop
  endfacet
  facet normal 0 0 -1
    outer loop
      vertex -7 -12.1244 0
      vertex -1.41842 -3.74006 0
      vertex 0.482147 -3.97083 0
    endloop
  endfacet
  facet normal 0 0 -1
    outer loop
      vertex 34.125 -1.51554 0
      vertex 0.463525 -6.57341 0
      vertex 33.25 0 0
    endloop
  endfacet
  facet normal 0 0 -1
    outer loop
      vertex 9.5 0 0
      vertex 107 12.1244 0
      vertex 8.46352 -1.42658 0
    endloop
  endfacet
  facet normal 0 0 -1
    outer loop
      vertex 3.54182 1.85889 0
      vertex 107 12.1244 0
      vertex 8.46352 1.42658 0
    endloop
  endfacet
  facet normal 0 0 -1
    outer loop
      vertex 35.875 -1.51554 0
      vertex 107 12.1244 0
      vertex 0.463525 -9.42658 0
    endloop
  endfacet
  facet normal 0 0 -1
    outer loop
      vertex 0.482147 3.97083 0
      vertex -7 12.1244 0
      vertex 2.27226 3.29194 0
    endloop
  endfacet
  facet normal 0 0 -1
    outer loop
      vertex 1.5 -8 0
      vertex 35.875 -1.51554 0
      vertex 0.463525 -9.42658 0
    endloop
  endfacet
  facet normal 0 0 -1
    outer loop
      vertex 3.54182 1.85889 0
      vertex 2.27226 3.29194 0
      vertex 107 12.1244 0
    endloop
  endfacet
  facet normal 0 0 -1
    outer loop
      vertex -1.41842 3.74006 0
      vertex -7 12.1244 0
      vertex 0.482147 3.97083 0
    endloop
  endfacet
  facet normal 0 0 -1
    outer loop
      vertex -2.99404 2.65249 0
      vertex -7 12.1244 0
      vertex -1.41842 3.74006 0
    endloop
  endfacet
  facet normal 0 0 -1
    outer loop
      vertex -3.88377 0.957263 0
      vertex -7 12.1244 0
      vertex -2.99404 2.65249 0
    endloop
  endfacet
  facet normal 0 0 -1
    outer loop
      vertex -7 -12.1244 0
      vertex 0.482147 -3.97083 0
      vertex -1.21352 -7.11832 0
    endloop
  endfacet
  facet normal 0 0 -1
    outer loop
      vertex -7 -12.1244 0
      vertex -1.21352 -7.11832 0
      vertex -1.21352 -8.88168 0
    endloop
  endfacet
  facet normal 0 0 -1
    outer loop
      vertex -7 -12.1244 0
      vertex -1.21352 -8.88168 0
      vertex 0.463525 -9.42658 0
    endloop
  endfacet
  facet normal 0 0 -1
    outer loop
      vertex -7 -12.1244 0
      vertex 0.463525 -9.42658 0
      vertex 107 12.1244 0
    endloop
  endfacet
  facet normal 0 0 -1
    outer loop
      vertex 36.75 0 0
      vertex 107 12.1244 0
      vertex 35.875 -1.51554 0
    endloop
  endfacet
  facet normal 0 0 -1
    outer loop
      vertex -1.21352 -7.11832 0
      vertex 0.482147 -3.97083 0
      vertex 0.463525 -6.57341 0
    endloop
  endfacet
  facet normal 0 0 -1
    outer loop
      vertex 0.463525 6.57341 0
      vertex 2.27226 3.29194 0
      vertex -1.21352 7.11832 0
    endloop
  endfacet
  facet normal 0 0 -1
    outer loop
      vertex -1.21352 7.11832 0
      vertex -7 12.1244 0
      vertex -1.21352 8.88168 0
    endloop
  endfacet
  facet normal 0 0 -1
    outer loop
      vertex 33.25 0 0
      vertex 2.27226 -3.29194 0
      vertex 34.125 1.51554 0
    endloop
  endfacet
  facet normal 0 0 -1
    outer loop
      vertex 2.27226 3.29194 0
      vertex -7 12.1244 0
      vertex -1.21352 7.11832 0
    endloop
  endfacet
  facet normal 0 0 -1
    outer loop
      vertex 0.463525 9.42658 0
      vertex 107 12.1244 0
      vertex 1.5 8 0
    endloop
  endfacet
  facet normal 0 0 -1
    outer loop
      vertex 2.27226 3.29194 0
      vertex 0.463525 6.57341 0
      vertex 107 12.1244 0
    endloop
  endfacet
  facet normal 0 0 -1
    outer loop
      vertex 0.463525 6.57341 0
      vertex 1.5 8 0
      vertex 107 12.1244 0
    endloop
  endfacet
  facet normal 0 0 -1
    outer loop
      vertex -1.21352 8.88168 0
      vertex -7 12.1244 0
      vertex 0.463525 9.42658 0
    endloop
  endfacet
  facet normal 0 0 -1
    outer loop
      vertex 6.78647 -0.881678 0
      vertex 4 0 0
      vertex 6.78647 0.881678 0
    endloop
  endfacet
  facet normal 0 0 -1
    outer loop
      vertex 8.46352 -1.42658 0
      vertex 34.125 1.51554 0
      vertex 2.27226 -3.29194 0
    endloop
  endfacet
  facet normal 0 0 -1
    outer loop
      vertex 34.125 1.51554 0
      vertex 107 12.1244 0
      vertex 35.875 1.51554 0
    endloop
  endfacet
  facet normal 0 0 -1
    outer loop
      vertex 34.125 1.51554 0
      vertex 8.46352 -1.42658 0
      vertex 107 12.1244 0
    endloop
  endfacet
  facet normal 0 0 -1
    outer loop
      vertex 3.54182 1.85889 0
      vertex 6.78647 0.881678 0
      vertex 4 0 0
    endloop
  endfacet
  facet normal 0 0 -1
    outer loop
      vertex 8.46352 1.42658 0
      vertex 107 12.1244 0
      vertex 9.5 0 0
    endloop
  endfacet
  facet normal 0 0 -1
    outer loop
      vertex 3.54182 -1.85889 0
      vertex 8.46352 -1.42658 0
      vertex 2.27226 -3.29194 0
    endloop
  endfacet
  facet normal 0 0 -1
    outer loop
      vertex 33.25 0 0
      vertex 0.482147 -3.97083 0
      vertex 2.27226 -3.29194 0
    endloop
  endfacet
  facet normal 0 0 -1
    outer loop
      vertex 0.463525 -6.57341 0
      vertex 0.482147 -3.97083 0
      vertex 33.25 0 0
    endloop
  endfacet
  facet normal 0 0 -1
    outer loop
      vertex 35.875 -1.51554 0
      vertex 1.5 -8 0
      vertex 34.125 -1.51554 0
    endloop
  endfacet
  facet normal 0 0 -1
    outer loop
      vertex 0.463525 -6.57341 0
      vertex 34.125 -1.51554 0
      vertex 1.5 -8 0
    endloop
  endfacet
  facet normal 0 0 -1
    outer loop
      vertex 93.5 0 0
      vertex 96.1162 -0.957263 0
      vertex 92.4635 -1.42658 0
    endloop
  endfacet
  facet normal 0 0 -1
    outer loop
      vertex 35.875 1.51554 0
      vertex 107 12.1244 0
      vertex 36.75 0 0
    endloop
  endfacet
  facet normal 0 0 -1
    outer loop
      vertex 8.46352 -1.42658 0
      vertex 3.54182 -1.85889 0
      vertex 6.78647 -0.881678 0
    endloop
  endfacet
  facet normal 0 0 -1
    outer loop
      vertex 90.7865 -0.881678 0
      vertex 65.875 -1.51554 0
      vertex 66.75 0 0
    endloop
  endfacet
  facet normal 0 0 -1
    outer loop
      vertex 108.464 1.42658 0
      vertex 107 12.1244 0
      vertex 114 0 0
    endloop
  endfacet
  facet normal 0 0 -1
    outer loop
      vertex -7 -12.1244 0
      vertex 63.25 0 0
      vertex 64.125 -1.51554 0
    endloop
  endfacet
  facet normal 0 0 -1
    outer loop
      vertex -7 -12.1244 0
      vertex 64.125 -1.51554 0
      vertex 65.875 -1.51554 0
    endloop
  endfacet
  facet normal 0 0 -1
    outer loop
      vertex 64.125 1.51554 0
      vertex 107 12.1244 0
      vertex 65.875 1.51554 0
    endloop
  endfacet
  facet normal 0 0 -1
    outer loop
      vertex -7 -12.1244 0
      vertex 107 12.1244 0
      vertex 64.125 1.51554 0
    endloop
  endfacet
  facet normal 0 0 -1
    outer loop
      vertex 97.006 -2.65249 0
      vertex -7 -12.1244 0
      vertex 92.4635 -1.42658 0
    endloop
  endfacet
  facet normal 0 0 -1
    outer loop
      vertex -7 -12.1244 0
      vertex 65.875 -1.51554 0
      vertex 90.7865 -0.881678 0
    endloop
  endfacet
  facet normal 0 0 -1
    outer loop
      vertex 92.4635 1.42658 0
      vertex 96.1162 0.957263 0
      vertex 93.5 0 0
    endloop
  endfacet
  facet normal 0 0 -1
    outer loop
      vertex -7 -12.1244 0
      vertex 90.7865 -0.881678 0
      vertex 92.4635 -1.42658 0
    endloop
  endfacet
  facet normal 0 0 -1
    outer loop
      vertex 65.875 1.51554 0
      vertex 107 12.1244 0
      vertex 66.75 0 0
    endloop
  endfacet
  facet normal 0 0 -1
    outer loop
      vertex 96.1162 -0.957263 0
      vertex 93.5 0 0
      vertex 96.1162 0.957263 0
    endloop
  endfacet
  facet normal 0 0 -1
    outer loop
      vertex 96.1162 0.957263 0
      vertex 92.4635 1.42658 0
      vertex 97.006 2.65249 0
    endloop
  endfacet
  facet normal 0 0 -1
    outer loop
      vertex 104 0 0
      vertex 106.786 -0.881678 0
      vertex 103.542 -1.85889 0
    endloop
  endfacet
  facet normal 0 0 -1
    outer loop
      vertex 100.464 -6.57341 0
      vertex 97.006 -2.65249 0
      vertex 107 -12.1244 0
    endloop
  endfacet
  facet normal 0 0 -1
    outer loop
      vertex 108.464 1.42658 0
      vertex 114 0 0
      vertex 109.5 0 0
    endloop
  endfacet
  facet normal 0 0 -1
    outer loop
      vertex 97.006 -2.65249 0
      vertex 98.5816 -3.74006 0
      vertex 107 -12.1244 0
    endloop
  endfacet
  facet normal 0 0 -1
    outer loop
      vertex 102.272 -3.29194 0
      vertex 114 0 0
      vertex 100.482 -3.97083 0
    endloop
  endfacet
  facet normal 0 0 -1
    outer loop
      vertex 98.5816 -3.74006 0
      vertex 100.482 -3.97083 0
      vertex 107 -12.1244 0
    endloop
  endfacet
  facet normal 0 0 -1
    outer loop
      vertex 108.464 -1.42658 0
      vertex 114 0 0
      vertex 102.272 -3.29194 0
    endloop
  endfacet
  facet normal 0 0 -1
    outer loop
      vertex 97.006 2.65249 0
      vertex 92.4635 1.42658 0
      vertex 98.5816 3.74006 0
    endloop
  endfacet
  facet normal 0 0 -1
    outer loop
      vertex 102.272 3.29194 0
      vertex 107 12.1244 0
      vertex 103.542 1.85889 0
    endloop
  endfacet
  facet normal 0 0 -1
    outer loop
      vertex 106.786 -0.881678 0
      vertex 104 0 0
      vertex 103.542 1.85889 0
    endloop
  endfacet
  facet normal 0 0 -1
    outer loop
      vertex 100.482 3.97083 0
      vertex 107 12.1244 0
      vertex 102.272 3.29194 0
    endloop
  endfacet
  facet normal 0 0 -1
    outer loop
      vertex 98.5816 3.74006 0
      vertex 107 12.1244 0
      vertex 100.482 3.97083 0
    endloop
  endfacet
  facet normal 0 0 -1
    outer loop
      vertex 100.464 6.57341 0
      vertex 107 12.1244 0
      vertex 98.5816 3.74006 0
    endloop
  endfacet
  facet normal 0 0 -1
    outer loop
      vertex 98.7865 -7.11832 0
      vertex 97.006 -2.65249 0
      vertex 100.464 -6.57341 0
    endloop
  endfacet
  facet normal 0 0 -1
    outer loop
      vertex -7 -12.1244 0
      vertex 97.006 -2.65249 0
      vertex 98.7865 -7.11832 0
    endloop
  endfacet
  facet normal 0 0 -1
    outer loop
      vertex 100.464 6.57341 0
      vertex 90.7865 0.881678 0
      vertex 98.7865 7.11832 0
    endloop
  endfacet
  facet normal 0 0 -1
    outer loop
      vertex -7 -12.1244 0
      vertex 98.7865 -7.11832 0
      vertex 98.7865 -8.88168 0
    endloop
  endfacet
  facet normal 0 0 -1
    outer loop
      vertex -7 -12.1244 0
      vertex 98.7865 -8.88168 0
      vertex 107 -12.1244 0
    endloop
  endfacet
  facet normal 0 0 -1
    outer loop
      vertex 98.7865 -8.88168 0
      vertex 100.464 -9.42658 0
      vertex 107 -12.1244 0
    endloop
  endfacet
  facet normal 0 0 -1
    outer loop
      vertex 101.5 -8 0
      vertex 107 -12.1244 0
      vertex 100.464 -9.42658 0
    endloop
  endfacet
  facet normal 0 0 -1
    outer loop
      vertex 100.464 6.57341 0
      vertex 92.4635 1.42658 0
      vertex 90.7865 0.881678 0
    endloop
  endfacet
  facet normal 0 0 -1
    outer loop
      vertex 101.5 -8 0
      vertex 100.464 -6.57341 0
      vertex 107 -12.1244 0
    endloop
  endfacet
  facet normal 0 0 -1
    outer loop
      vertex 66.75 0 0
      vertex 107 12.1244 0
      vertex 98.7865 8.88168 0
    endloop
  endfacet
  facet normal 0 0 -1
    outer loop
      vertex 66.75 0 0
      vertex 98.7865 8.88168 0
      vertex 90.7865 0.881678 0
    endloop
  endfacet
  facet normal 0 0 -1
    outer loop
      vertex 106.786 0.881678 0
      vertex 103.542 1.85889 0
      vertex 108.464 1.42658 0
    endloop
  endfacet
  facet normal 0 0 -1
    outer loop
      vertex 98.7865 8.88168 0
      vertex 98.7865 7.11832 0
      vertex 90.7865 0.881678 0
    endloop
  endfacet
  facet normal 0 0 -1
    outer loop
      vertex 101.5 8 0
      vertex 107 12.1244 0
      vertex 100.464 6.57341 0
    endloop
  endfacet
  facet normal 0 0 -1
    outer loop
      vertex 92.4635 1.42658 0
      vertex 100.464 6.57341 0
      vertex 98.5816 3.74006 0
    endloop
  endfacet
  facet normal 0 0 -1
    outer loop
      vertex 100.464 9.42658 0
      vertex 107 12.1244 0
      vertex 101.5 8 0
    endloop
  endfacet
  facet normal 0 0 -1
    outer loop
      vertex 98.7865 8.88168 0
      vertex 107 12.1244 0
      vertex 100.464 9.42658 0
    endloop
  endfacet
  facet normal 0 0 -1
    outer loop
      vertex 103.542 -1.85889 0
      vertex 108.464 -1.42658 0
      vertex 102.272 -3.29194 0
    endloop
  endfacet
  facet normal 0 0 -1
    outer loop
      vertex 109.5 0 0
      vertex 114 0 0
      vertex 108.464 -1.42658 0
    endloop
  endfacet
  facet normal 0 0 -1
    outer loop
      vertex 108.464 -1.42658 0
      vertex 103.542 -1.85889 0
      vertex 106.786 -0.881678 0
    endloop
  endfacet
  facet normal 0 0 -1
    outer loop
      vertex 97.006 -2.65249 0
      vertex 92.4635 -1.42658 0
      vertex 96.1162 -0.957263 0
    endloop
  endfacet
  facet normal 0 0 -1
    outer loop
      vertex 103.542 1.85889 0
      vertex 107 12.1244 0
      vertex 108.464 1.42658 0
    endloop
  endfacet
  facet normal 0 0 -1
    outer loop
      vertex 106.786 -0.881678 0
      vertex 103.542 1.85889 0
      vertex 106.786 0.881678 0
    endloop
  endfacet
  facet normal 0 0 -1
    outer loop
      vertex -7.53647 -1.42658 0
      vertex -7 -12.1244 0
      vertex -9.21352 -0.881678 0
    endloop
  endfacet
  facet normal 0 0 -1
    outer loop
      vertex 63.25 0 0
      vertex -7 -12.1244 0
      vertex 64.125 1.51554 0
    endloop
  endfacet
  facet normal -0.866025 0.5 0
    outer loop
      vertex -14 0 0
      vertex -14 0 3
      vertex -7 12.1244 0
    endloop
  endfacet
  facet normal -0.866025 0.5 0
    outer loop
      vertex -7 12.1244 0
      vertex -14 0 3
      vertex -7 12.1244 3
    endloop
  endfacet
  facet normal 0 0 1
    outer loop
      vertex -9.21352 -0.881678 3
      vertex -14 0 3
      vertex -7 -12.1244 3
    endloop
  endfacet
  facet normal 0 0 1
    outer loop
      vertex 64.125 -1.51554 3
      vertex -7 12.1244 3
      vertex 107 -12.1244 3
    endloop
  endfacet
  facet normal 0 0 1
    outer loop
      vertex -7.53647 -1.42658 3
      vertex -9.21352 -0.881678 3
      vertex -7 -12.1244 3
    endloop
  endfacet
  facet normal 0 0 1
    outer loop
      vertex -9.21352 0.881678 3
      vertex -14 0 3
      vertex -9.21352 -0.881678 3
    endloop
  endfacet
  facet normal 0 0 1
    outer loop
      vertex -7.53647 1.42658 3
      vertex -6.5 0 3
      vertex -7 12.1244 3
    endloop
  endfacet
  facet normal 0 0 1
    outer loop
      vertex -7 12.1244 3
      vertex -14 0 3
      vertex -9.21352 0.881678 3
    endloop
  endfacet
  facet normal 0 0 1
    outer loop
      vertex -6.5 0 3
      vertex -7.53647 -1.42658 3
      vertex -7 -12.1244 3
    endloop
  endfacet
  facet normal 0 0 1
    outer loop
      vertex 6.78647 -0.881678 3
      vertex 6.78647 0.881678 3
      vertex 3.54182 1.85889 3
    endloop
  endfacet
  facet normal 0 0 1
    outer loop
      vertex -3.88377 -0.957263 3
      vertex -6.5 0 3
      vertex -7 -12.1244 3
    endloop
  endfacet
  facet normal 0 0 1
    outer loop
      vertex -3.88377 0.957263 3
      vertex -7 12.1244 3
      vertex -6.5 0 3
    endloop
  endfacet
  facet normal 0 0 1
    outer loop
      vertex 92.4635 1.42658 3
      vertex 93.5 0 3
      vertex 96.1162 0.957263 3
    endloop
  endfacet
  facet normal 0 0 1
    outer loop
      vertex -2.99404 -2.65249 3
      vertex -3.88377 -0.957263 3
      vertex -7 -12.1244 3
    endloop
  endfacet
  facet normal 0 0 1
    outer loop
      vertex 34.125 -1.51554 3
      vertex 0.482147 3.97083 3
      vertex 2.27226 3.29194 3
    endloop
  endfacet
  facet normal 0 0 1
    outer loop
      vertex -2.99404 2.65249 3
      vertex -7 12.1244 3
      vertex -3.88377 0.957263 3
    endloop
  endfacet
  facet normal 0 0 1
    outer loop
      vertex 8.46352 -1.42658 3
      vertex 3.54182 -1.85889 3
      vertex 107 -12.1244 3
    endloop
  endfacet
  facet normal 0 0 1
    outer loop
      vertex -1.41842 3.74006 3
      vertex -7 12.1244 3
      vertex -2.99404 2.65249 3
    endloop
  endfacet
  facet normal 0 0 1
    outer loop
      vertex 0.482147 3.97083 3
      vertex -7 12.1244 3
      vertex -1.41842 3.74006 3
    endloop
  endfacet
  facet normal 0 0 1
    outer loop
      vertex -1.21352 7.11832 3
      vertex -7 12.1244 3
      vertex 0.482147 3.97083 3
    endloop
  endfacet
  facet normal 0 0 1
    outer loop
      vertex 9.5 0 3
      vertex 8.46352 -1.42658 3
      vertex 107 -12.1244 3
    endloop
  endfacet
  facet normal 0 0 1
    outer loop
      vertex 33.25 0 3
      vertex 34.125 1.51554 3
      vertex 0.463525 6.57341 3
    endloop
  endfacet
  facet normal 0 0 1
    outer loop
      vertex 97.006 -2.65249 3
      vertex 96.1162 -0.957263 3
      vertex 92.4635 -1.42658 3
    endloop
  endfacet
  facet normal 0 0 1
    outer loop
      vertex -1.21352 -7.11832 3
      vertex 0.463525 -6.57341 3
      vertex 2.27226 -3.29194 3
    endloop
  endfacet
  facet normal 0 0 1
    outer loop
      vertex -1.21352 -7.11832 3
      vertex 2.27226 -3.29194 3
      vertex -7 -12.1244 3
    endloop
  endfacet
  facet normal 0 0 1
    outer loop
      vertex 107 -12.1244 3
      vertex 3.54182 -1.85889 3
      vertex 2.27226 -3.29194 3
    endloop
  endfacet
  facet normal 0 0 1
    outer loop
      vertex 0.482147 -3.97083 3
      vertex -1.41842 -3.74006 3
      vertex -7 -12.1244 3
    endloop
  endfacet
  facet normal 0 0 1
    outer loop
      vertex -1.41842 -3.74006 3
      vertex -2.99404 -2.65249 3
      vertex -7 -12.1244 3
    endloop
  endfacet
  facet normal 0 0 1
    outer loop
      vertex 0.463525 -9.42658 3
      vertex -1.21352 -8.88168 3
      vertex -7 -12.1244 3
    endloop
  endfacet
  facet normal 0 0 1
    outer loop
      vertex -1.21352 -8.88168 3
      vertex -1.21352 -7.11832 3
      vertex -7 -12.1244 3
    endloop
  endfacet
  facet normal 0 0 1
    outer loop
      vertex 1.5 -8 3
      vertex 0.463525 -9.42658 3
      vertex 107 -12.1244 3
    endloop
  endfacet
  facet normal 0 0 1
    outer loop
      vertex 107 -12.1244 3
      vertex 2.27226 -3.29194 3
      vertex 0.463525 -6.57341 3
    endloop
  endfacet
  facet normal 0 0 1
    outer loop
      vertex 0.463525 9.42658 3
      vertex 35.875 1.51554 3
      vertex 107 -12.1244 3
    endloop
  endfacet
  facet normal 0 0 1
    outer loop
      vertex 107 -12.1244 3
      vertex 0.463525 -6.57341 3
      vertex 1.5 -8 3
    endloop
  endfacet
  facet normal 0 0 1
    outer loop
      vertex 107 -12.1244 3
      vertex 0.463525 -9.42658 3
      vertex -7 -12.1244 3
    endloop
  endfacet
  facet normal 0 0 1
    outer loop
      vertex 0.463525 6.57341 3
      vertex -1.21352 7.11832 3
      vertex 0.482147 3.97083 3
    endloop
  endfacet
  facet normal 0 0 1
    outer loop
      vertex -1.21352 8.88168 3
      vertex -7 12.1244 3
      vertex -1.21352 7.11832 3
    endloop
  endfacet
  facet normal 0 0 1
    outer loop
      vertex 0.463525 9.42658 3
      vertex -7 12.1244 3
      vertex -1.21352 8.88168 3
    endloop
  endfacet
  facet normal 0 0 1
    outer loop
      vertex 1.5 8 3
      vertex 0.463525 6.57341 3
      vertex 34.125 1.51554 3
    endloop
  endfacet
  facet normal 0 0 1
    outer loop
      vertex 107 -12.1244 3
      vertex -7 12.1244 3
      vertex 0.463525 9.42658 3
    endloop
  endfacet
  facet normal 0 0 1
    outer loop
      vertex 6.78647 -0.881678 3
      vertex 3.54182 1.85889 3
      vertex 4 0 3
    endloop
  endfacet
  facet normal 0 0 1
    outer loop
      vertex 33.25 0 3
      vertex 0.463525 6.57341 3
      vertex 0.482147 3.97083 3
    endloop
  endfacet
  facet normal 0 0 1
    outer loop
      vertex 35.875 -1.51554 3
      vertex 34.125 -1.51554 3
      vertex 107 -12.1244 3
    endloop
  endfacet
  facet normal 0 0 1
    outer loop
      vertex 2.27226 3.29194 3
      vertex 8.46352 1.42658 3
      vertex 34.125 -1.51554 3
    endloop
  endfacet
  facet normal 0 0 1
    outer loop
      vertex 34.125 -1.51554 3
      vertex 33.25 0 3
      vertex 0.482147 3.97083 3
    endloop
  endfacet
  facet normal 0 0 1
    outer loop
      vertex 4 0 3
      vertex 8.46352 -1.42658 3
      vertex 6.78647 -0.881678 3
    endloop
  endfacet
  facet normal 0 0 1
    outer loop
      vertex 4 0 3
      vertex 3.54182 -1.85889 3
      vertex 8.46352 -1.42658 3
    endloop
  endfacet
  facet normal 0 0 1
    outer loop
      vertex 2.27226 3.29194 3
      vertex 3.54182 1.85889 3
      vertex 8.46352 1.42658 3
    endloop
  endfacet
  facet normal 0 0 1
    outer loop
      vertex 107 -12.1244 3
      vertex 34.125 -1.51554 3
      vertex 8.46352 1.42658 3
    endloop
  endfacet
  facet normal 0 0 1
    outer loop
      vertex 8.46352 1.42658 3
      vertex 9.5 0 3
      vertex 107 -12.1244 3
    endloop
  endfacet
  facet normal 0 0 1
    outer loop
      vertex 35.875 1.51554 3
      vertex 36.75 0 3
      vertex 107 -12.1244 3
    endloop
  endfacet
  facet normal 0 0 1
    outer loop
      vertex 36.75 0 3
      vertex 35.875 -1.51554 3
      vertex 107 -12.1244 3
    endloop
  endfacet
  facet normal 0 0 1
    outer loop
      vertex 34.125 1.51554 3
      vertex 35.875 1.51554 3
      vertex 1.5 8 3
    endloop
  endfacet
  facet normal 0 0 1
    outer loop
      vertex 65.875 -1.51554 3
      vertex 64.125 -1.51554 3
      vertex 107 -12.1244 3
    endloop
  endfacet
  facet normal 0 0 1
    outer loop
      vertex 63.25 0 3
      vertex -7 12.1244 3
      vertex 64.125 -1.51554 3
    endloop
  endfacet
  facet normal 0 0 1
    outer loop
      vertex 98.7865 -7.11832 3
      vertex 92.4635 -1.42658 3
      vertex 90.7865 -0.881678 3
    endloop
  endfacet
  facet normal 0 0 1
    outer loop
      vertex 64.125 1.51554 3
      vertex -7 12.1244 3
      vertex 63.25 0 3
    endloop
  endfacet
  facet normal 0 0 1
    outer loop
      vertex 65.875 1.51554 3
      vertex -7 12.1244 3
      vertex 64.125 1.51554 3
    endloop
  endfacet
  facet normal 0 0 1
    outer loop
      vertex 106.786 0.881678 3
      vertex 108.464 1.42658 3
      vertex 103.542 1.85889 3
    endloop
  endfacet
  facet normal 0 0 1
    outer loop
      vertex 90.7865 0.881678 3
      vertex -7 12.1244 3
      vertex 65.875 1.51554 3
    endloop
  endfacet
  facet normal 0 0 1
    outer loop
      vertex 98.7865 -8.88168 3
      vertex 65.875 -1.51554 3
      vertex 107 -12.1244 3
    endloop
  endfacet
  facet normal 0 0 1
    outer loop
      vertex 98.7865 -7.11832 3
      vertex 100.464 -6.57341 3
      vertex 92.4635 -1.42658 3
    endloop
  endfacet
  facet normal 0 0 1
    outer loop
      vertex 106.786 -0.881678 3
      vertex 106.786 0.881678 3
      vertex 103.542 1.85889 3
    endloop
  endfacet
  facet normal 0 0 1
    outer loop
      vertex 92.4635 1.42658 3
      vertex -7 12.1244 3
      vertex 90.7865 0.881678 3
    endloop
  endfacet
  facet normal 0 0 1
    outer loop
      vertex 93.5 0 3
      vertex 92.4635 -1.42658 3
      vertex 96.1162 -0.957263 3
    endloop
  endfacet
  facet normal 0 0 1
    outer loop
      vertex 102.272 3.29194 3
      vertex 103.542 1.85889 3
      vertex 108.464 1.42658 3
    endloop
  endfacet
  facet normal 0 0 1
    outer loop
      vertex 101.5 -8 3
      vertex 100.464 -9.42658 3
      vertex 107 -12.1244 3
    endloop
  endfacet
  facet normal 0 0 1
    outer loop
      vertex 98.5816 -3.74006 3
      vertex 97.006 -2.65249 3
      vertex 92.4635 -1.42658 3
    endloop
  endfacet
  facet normal 0 0 1
    outer loop
      vertex 104 0 3
      vertex 103.542 -1.85889 3
      vertex 106.786 -0.881678 3
    endloop
  endfacet
  facet normal 0 0 1
    outer loop
      vertex 98.7865 7.11832 3
      vertex -7 12.1244 3
      vertex 97.006 2.65249 3
    endloop
  endfacet
  facet normal 0 0 1
    outer loop
      vertex 107 12.1244 3
      vertex 97.006 2.65249 3
      vertex 98.5816 3.74006 3
    endloop
  endfacet
  facet normal 0 0 1
    outer loop
      vertex 107 12.1244 3
      vertex 100.482 3.97083 3
      vertex 114 0 3
    endloop
  endfacet
  facet normal 0 0 1
    outer loop
      vertex 107 12.1244 3
      vertex 98.5816 3.74006 3
      vertex 100.482 3.97083 3
    endloop
  endfacet
  facet normal 0 0 1
    outer loop
      vertex 100.482 3.97083 3
      vertex 102.272 3.29194 3
      vertex 114 0 3
    endloop
  endfacet
  facet normal 0 0 1
    outer loop
      vertex 108.464 -1.42658 3
      vertex 103.542 -1.85889 3
      vertex 107 -12.1244 3
    endloop
  endfacet
  facet normal 0 0 1
    outer loop
      vertex 92.4635 1.42658 3
      vertex 97.006 2.65249 3
      vertex -7 12.1244 3
    endloop
  endfacet
  facet normal 0 0 1
    outer loop
      vertex 103.542 -1.85889 3
      vertex 102.272 -3.29194 3
      vertex 107 -12.1244 3
    endloop
  endfacet
  facet normal 0 0 1
    outer loop
      vertex 96.1162 0.957263 3
      vertex 97.006 2.65249 3
      vertex 92.4635 1.42658 3
    endloop
  endfacet
  facet normal 0 0 1
    outer loop
      vertex 102.272 -3.29194 3
      vertex 100.482 -3.97083 3
      vertex 107 -12.1244 3
    endloop
  endfacet
  facet normal 0 0 1
    outer loop
      vertex 100.464 6.57341 3
      vertex 98.7865 7.11832 3
      vertex 97.006 2.65249 3
    endloop
  endfacet
  facet normal 0 0 1
    outer loop
      vertex 100.482 -3.97083 3
      vertex 98.5816 -3.74006 3
      vertex 107 -12.1244 3
    endloop
  endfacet
  facet normal 0 0 1
    outer loop
      vertex 109.5 0 3
      vertex 108.464 -1.42658 3
      vertex 114 0 3
    endloop
  endfacet
  facet normal 0 0 1
    outer loop
      vertex 100.464 -9.42658 3
      vertex 98.7865 -8.88168 3
      vertex 107 -12.1244 3
    endloop
  endfacet
  facet normal 0 0 1
    outer loop
      vertex 90.7865 -0.881678 3
      vertex 65.875 -1.51554 3
      vertex 98.7865 -8.88168 3
    endloop
  endfacet
  facet normal 0 0 1
    outer loop
      vertex 90.7865 -0.881678 3
      vertex 98.7865 -8.88168 3
      vertex 98.7865 -7.11832 3
    endloop
  endfacet
  facet normal 0 0 1
    outer loop
      vertex 98.5816 -3.74006 3
      vertex 100.464 -6.57341 3
      vertex 107 -12.1244 3
    endloop
  endfacet
  facet normal 0 0 1
    outer loop
      vertex 98.5816 -3.74006 3
      vertex 92.4635 -1.42658 3
      vertex 100.464 -6.57341 3
    endloop
  endfacet
  facet normal 0 0 1
    outer loop
      vertex 100.464 -6.57341 3
      vertex 101.5 -8 3
      vertex 107 -12.1244 3
    endloop
  endfacet
  facet normal 0 0 1
    outer loop
      vertex 98.7865 8.88168 3
      vertex -7 12.1244 3
      vertex 98.7865 7.11832 3
    endloop
  endfacet
  facet normal 0 0 1
    outer loop
      vertex 107 12.1244 3
      vertex -7 12.1244 3
      vertex 98.7865 8.88168 3
    endloop
  endfacet
  facet normal 0 0 1
    outer loop
      vertex 108.464 -1.42658 3
      vertex 106.786 -0.881678 3
      vertex 103.542 -1.85889 3
    endloop
  endfacet
  facet normal 0 0 1
    outer loop
      vertex 107 12.1244 3
      vertex 98.7865 8.88168 3
      vertex 100.464 9.42658 3
    endloop
  endfacet
  facet normal 0 0 1
    outer loop
      vertex 100.464 9.42658 3
      vertex 101.5 8 3
      vertex 107 12.1244 3
    endloop
  endfacet
  facet normal 0 0 1
    outer loop
      vertex 107 12.1244 3
      vertex 100.464 6.57341 3
      vertex 97.006 2.65249 3
    endloop
  endfacet
  facet normal 0 0 1
    outer loop
      vertex 107 12.1244 3
      vertex 101.5 8 3
      vertex 100.464 6.57341 3
    endloop
  endfacet
  facet normal 0 0 1
    outer loop
      vertex 96.1162 -0.957263 3
      vertex 96.1162 0.957263 3
      vertex 93.5 0 3
    endloop
  endfacet
  facet normal 0 0 1
    outer loop
      vertex 102.272 3.29194 3
      vertex 108.464 1.42658 3
      vertex 114 0 3
    endloop
  endfacet
  facet normal 0 0 1
    outer loop
      vertex 108.464 1.42658 3
      vertex 109.5 0 3
      vertex 114 0 3
    endloop
  endfacet
  facet normal 0 0 1
    outer loop
      vertex 114 0 3
      vertex 108.464 -1.42658 3
      vertex 107 -12.1244 3
    endloop
  endfacet
  facet normal 0 0 1
    outer loop
      vertex 106.786 -0.881678 3
      vertex 103.542 1.85889 3
      vertex 104 0 3
    endloop
  endfacet
  facet normal 0 0 1
    outer loop
      vertex -9.21352 0.881678 3
      vertex -7.53647 1.42658 3
      vertex -7 12.1244 3
    endloop
  endfacet
  facet normal 0 0 1
    outer loop
      vertex 2.27226 -3.29194 3
      vertex 0.482147 -3.97083 3
      vertex -7 -12.1244 3
    endloop
  endfacet
  facet normal 0 0 1
    outer loop
      vertex 0.463525 9.42658 3
      vertex 1.5 8 3
      vertex 35.875 1.51554 3
    endloop
  endfacet
  facet normal 0 0 1
    outer loop
      vertex -3.88377 -0.957263 3
      vertex -3.88377 0.957263 3
      vertex -6.5 0 3
    endloop
  endfacet
  facet normal 0 0 1
    outer loop
      vertex 6.78647 0.881678 3
      vertex 8.46352 1.42658 3
      vertex 3.54182 1.85889 3
    endloop
  endfacet
  facet normal 0 0 1
    outer loop
      vertex 90.7865 -0.881678 3
      vertex 66.75 0 3
      vertex 65.875 -1.51554 3
    endloop
  endfacet
  facet normal 0 0 1
    outer loop
      vertex 90.7865 -0.881678 3
      vertex 65.875 1.51554 3
      vertex 66.75 0 3
    endloop
  endfacet
  facet normal 0 0 1
    outer loop
      vertex 90.7865 -0.881678 3
      vertex 90.7865 0.881678 3
      vertex 65.875 1.51554 3
    endloop
  endfacet
  facet normal 0 -1 0
    outer loop
      vertex -7 -12.1244 3
      vertex -7 -12.1244 0
      vertex 107 -12.1244 0
    endloop
  endfacet
  facet normal 0 -1 0
    outer loop
      vertex 107 -12.1244 3
      vertex -7 -12.1244 3
      vertex 107 -12.1244 0
    endloop
  endfacet
  facet normal 0.866025 -0.5 0
    outer loop
      vertex 107 -12.1244 3
      vertex 107 -12.1244 0
      vertex 114 0 0
    endloop
  endfacet
  facet normal 0.866025 -0.5 0
    outer loop
      vertex 114 0 3
      vertex 107 -12.1244 3
      vertex 114 0 0
    endloop
  endfacet
  facet normal 0.866025 0.5 0
    outer loop
      vertex 114 0 0
      vertex 107 12.1244 0
      vertex 107 12.1244 3
    endloop
  endfacet
  facet normal 0.866025 0.5 0
    outer loop
      vertex 114 0 3
      vertex 114 0 0
      vertex 107 12.1244 3
    endloop
  endfacet
  facet normal 0 1 0
    outer loop
      vertex -7 12.1244 0
      vertex -7 12.1244 3
      vertex 107 12.1244 0
    endloop
  endfacet
  facet normal 0 1 0
    outer loop
      vertex 107 12.1244 0
      vertex -7 12.1244 3
      vertex 107 12.1244 3
    endloop
  endfacet
  facet normal 0.309017 -0.951056 0
    outer loop
      vertex -7.53647 1.42658 0
      vertex -7.53647 1.42658 3
      vertex -9.21352 0.881678 3
    endloop
  endfacet
  facet normal 0.309017 -0.951056 0
    outer loop
      vertex -9.21352 0.881678 0
      vertex -7.53647 1.42658 0
      vertex -9.21352 0.881678 3
    endloop
  endfacet
  facet normal 1 0 0
    outer loop
      vertex -9.21352 0.881678 0
      vertex -9.21352 0.881678 3
      vertex -9.21352 -0.881678 3
    endloop
  endfacet
  facet normal 1 0 0
    outer loop
      vertex -9.21352 -0.881678 0
      vertex -9.21352 0.881678 0
      vertex -9.21352 -0.881678 3
    endloop
  endfacet
  facet normal -0.809017 -0.587785 0
    outer loop
      vertex -6.5 0 3
      vertex -7.53647 1.42658 3
      vertex -6.5 0 0
    endloop
  endfacet
  facet normal -0.809017 -0.587785 0
    outer loop
      vertex -6.5 0 0
      vertex -7.53647 1.42658 3
      vertex -7.53647 1.42658 0
    endloop
  endfacet
  facet normal -0.809017 0.587785 0
    outer loop
      vertex -6.5 0 3
      vertex -6.5 0 0
      vertex -7.53647 -1.42658 3
    endloop
  endfacet
  facet normal -0.809017 0.587785 0
    outer loop
      vertex -7.53647 -1.42658 3
      vertex -6.5 0 0
      vertex -7.53647 -1.42658 0
    endloop
  endfacet
  facet normal 0.309017 0.951056 0
    outer loop
      vertex -7.53647 -1.42658 3
      vertex -7.53647 -1.42658 0
      vertex -9.21352 -0.881678 3
    endloop
  endfacet
  facet normal 0.309017 0.951056 0
    outer loop
      vertex -9.21352 -0.881678 3
      vertex -7.53647 -1.42658 0
      vertex -9.21352 -0.881678 0
    endloop
  endfacet
  facet normal 0.885456 -0.464723 0
    outer loop
      vertex -2.99404 2.65249 0
      vertex -2.99404 2.65249 3
      vertex -3.88377 0.957263 3
    endloop
  endfacet
  facet normal 0.885456 -0.464723 0
    outer loop
      vertex -3.88377 0.957263 0
      vertex -2.99404 2.65249 0
      vertex -3.88377 0.957263 3
    endloop
  endfacet
  facet normal 1 0 0
    outer loop
      vertex -3.88377 0.957263 0
      vertex -3.88377 0.957263 3
      vertex -3.88377 -0.957263 3
    endloop
  endfacet
  facet normal 1 0 0
    outer loop
      vertex -3.88377 -0.957263 0
      vertex -3.88377 0.957263 0
      vertex -3.88377 -0.957263 3
    endloop
  endfacet
  facet normal 0.568065 -0.822984 0
    outer loop
      vertex -1.41842 3.74006 0
      vertex -1.41842 3.74006 3
      vertex -2.99404 2.65249 3
    endloop
  endfacet
  facet normal 0.568065 -0.822984 0
    outer loop
      vertex -2.99404 2.65249 0
      vertex -1.41842 3.74006 0
      vertex -2.99404 2.65249 3
    endloop
  endfacet
  facet normal 0.120536 -0.992709 0
    outer loop
      vertex 0.482147 3.97083 0
      vertex 0.482147 3.97083 3
      vertex -1.41842 3.74006 3
    endloop
  endfacet
  facet normal 0.120536 -0.992709 0
    outer loop
      vertex -1.41842 3.74006 0
      vertex 0.482147 3.97083 0
      vertex -1.41842 3.74006 3
    endloop
  endfacet
  facet normal -0.354605 -0.935016 0
    outer loop
      vertex 2.27226 3.29194 0
      vertex 2.27226 3.29194 3
      vertex 0.482147 3.97083 3
    endloop
  endfacet
  facet normal -0.354605 -0.935016 0
    outer loop
      vertex 0.482147 3.97083 0
      vertex 2.27226 3.29194 0
      vertex 0.482147 3.97083 3
    endloop
  endfacet
  facet normal -0.748511 -0.663123 0
    outer loop
      vertex 3.54182 1.85889 3
      vertex 2.27226 3.29194 3
      vertex 3.54182 1.85889 0
    endloop
  endfacet
  facet normal -0.748511 -0.663123 0
    outer loop
      vertex 3.54182 1.85889 0
      vertex 2.27226 3.29194 3
      vertex 2.27226 3.29194 0
    endloop
  endfacet
  facet normal -0.970942 -0.239316 0
    outer loop
      vertex 4 0 3
      vertex 3.54182 1.85889 3
      vertex 4 0 0
    endloop
  endfacet
  facet normal -0.970942 -0.239316 0
    outer loop
      vertex 4 0 0
      vertex 3.54182 1.85889 3
      vertex 3.54182 1.85889 0
    endloop
  endfacet
  facet normal -0.970942 0.239316 0
    outer loop
      vertex 4 0 3
      vertex 4 0 0
      vertex 3.54182 -1.85889 3
    endloop
  endfacet
  facet normal -0.970942 0.239316 0
    outer loop
      vertex 3.54182 -1.85889 3
      vertex 4 0 0
      vertex 3.54182 -1.85889 0
    endloop
  endfacet
  facet normal -0.748511 0.663123 0
    outer loop
      vertex 3.54182 -1.85889 3
      vertex 3.54182 -1.85889 0
      vertex 2.27226 -3.29194 3
    endloop
  endfacet
  facet normal -0.748511 0.663123 0
    outer loop
      vertex 2.27226 -3.29194 3
      vertex 3.54182 -1.85889 0
      vertex 2.27226 -3.29194 0
    endloop
  endfacet
  facet normal -0.354605 0.935016 0
    outer loop
      vertex 2.27226 -3.29194 3
      vertex 2.27226 -3.29194 0
      vertex 0.482147 -3.97083 3
    endloop
  endfacet
  facet normal -0.354605 0.935016 0
    outer loop
      vertex 0.482147 -3.97083 3
      vertex 2.27226 -3.29194 0
      vertex 0.482147 -3.97083 0
    endloop
  endfacet
  facet normal 0.120536 0.992709 0
    outer loop
      vertex 0.482147 -3.97083 3
      vertex 0.482147 -3.97083 0
      vertex -1.41842 -3.74006 3
    endloop
  endfacet
  facet normal 0.120536 0.992709 0
    outer loop
      vertex -1.41842 -3.74006 3
      vertex 0.482147 -3.97083 0
      vertex -1.41842 -3.74006 0
    endloop
  endfacet
  facet normal 0.568065 0.822984 0
    outer loop
      vertex -1.41842 -3.74006 3
      vertex -1.41842 -3.74006 0
      vertex -2.99404 -2.65249 3
    endloop
  endfacet
  facet normal 0.568065 0.822984 0
    outer loop
      vertex -2.99404 -2.65249 3
      vertex -1.41842 -3.74006 0
      vertex -2.99404 -2.65249 0
    endloop
  endfacet
  facet normal 0.885456 0.464723 0
    outer loop
      vertex -3.88377 -0.957263 3
      vertex -2.99404 -2.65249 3
      vertex -2.99404 -2.65249 0
    endloop
  endfacet
  facet normal 0.885456 0.464723 0
    outer loop
      vertex -3.88377 -0.957263 0
      vertex -3.88377 -0.957263 3
      vertex -2.99404 -2.65249 0
    endloop
  endfacet
  facet normal 0.309017 -0.951056 0
    outer loop
      vertex 0.463525 -6.57341 0
      vertex 0.463525 -6.57341 3
      vertex -1.21352 -7.11832 3
    endloop
  endfacet
  facet normal 0.309017 -0.951056 0
    outer loop
      vertex -1.21352 -7.11832 0
      vertex 0.463525 -6.57341 0
      vertex -1.21352 -7.11832 3
    endloop
  endfacet
  facet normal 1 0 0
    outer loop
      vertex -1.21352 -7.11832 0
      vertex -1.21352 -7.11832 3
      vertex -1.21352 -8.88168 3
    endloop
  endfacet
  facet normal 1 0 0
    outer loop
      vertex -1.21352 -8.88168 0
      vertex -1.21352 -7.11832 0
      vertex -1.21352 -8.88168 3
    endloop
  endfacet
  facet normal -0.809017 -0.587785 0
    outer loop
      vertex 1.5 -8 3
      vertex 0.463525 -6.57341 3
      vertex 1.5 -8 0
    endloop
  endfacet
  facet normal -0.809017 -0.587785 0
    outer loop
      vertex 1.5 -8 0
      vertex 0.463525 -6.57341 3
      vertex 0.463525 -6.57341 0
    endloop
  endfacet
  facet normal -0.809017 0.587785 0
    outer loop
      vertex 1.5 -8 3
      vertex 1.5 -8 0
      vertex 0.463525 -9.42658 3
    endloop
  endfacet
  facet normal -0.809017 0.587785 0
    outer loop
      vertex 0.463525 -9.42658 3
      vertex 1.5 -8 0
      vertex 0.463525 -9.42658 0
    endloop
  endfacet
  facet normal 0.309017 0.951056 0
    outer loop
      vertex 0.463525 -9.42658 3
      vertex 0.463525 -9.42658 0
      vertex -1.21352 -8.88168 3
    endloop
  endfacet
  facet normal 0.309017 0.951056 0
    outer loop
      vertex -1.21352 -8.88168 3
      vertex 0.463525 -9.42658 0
      vertex -1.21352 -8.88168 0
    endloop
  endfacet
  facet normal 0.309017 -0.951056 0
    outer loop
      vertex 0.463525 9.42658 0
      vertex 0.463525 9.42658 3
      vertex -1.21352 8.88168 3
    endloop
  endfacet
  facet normal 0.309017 -0.951056 0
    outer loop
      vertex -1.21352 8.88168 0
      vertex 0.463525 9.42658 0
      vertex -1.21352 8.88168 3
    endloop
  endfacet
  facet normal 1 0 0
    outer loop
      vertex -1.21352 8.88168 0
      vertex -1.21352 8.88168 3
      vertex -1.21352 7.11832 3
    endloop
  endfacet
  facet normal 1 0 0
    outer loop
      vertex -1.21352 7.11832 0
      vertex -1.21352 8.88168 0
      vertex -1.21352 7.11832 3
    endloop
  endfacet
  facet normal -0.809017 -0.587785 0
    outer loop
      vertex 1.5 8 3
      vertex 0.463525 9.42658 3
      vertex 1.5 8 0
    endloop
  endfacet
  facet normal -0.809017 -0.587785 0
    outer loop
      vertex 1.5 8 0
      vertex 0.463525 9.42658 3
      vertex 0.463525 9.42658 0
    endloop
  endfacet
  facet normal -0.809017 0.587785 0
    outer loop
      vertex 1.5 8 3
      vertex 1.5 8 0
      vertex 0.463525 6.57341 3
    endloop
  endfacet
  facet normal -0.809017 0.587785 0
    outer loop
      vertex 0.463525 6.57341 3
      vertex 1.5 8 0
      vertex 0.463525 6.57341 0
    endloop
  endfacet
  facet normal 0.309017 0.951056 0
    outer loop
      vertex 0.463525 6.57341 3
      vertex 0.463525 6.57341 0
      vertex -1.21352 7.11832 3
    endloop
  endfacet
  facet normal 0.309017 0.951056 0
    outer loop
      vertex -1.21352 7.11832 3
      vertex 0.463525 6.57341 0
      vertex -1.21352 7.11832 0
    endloop
  endfacet
  facet normal 0.309017 -0.951056 0
    outer loop
      vertex 8.46352 1.42658 0
      vertex 8.46352 1.42658 3
      vertex 6.78647 0.881678 3
    endloop
  endfacet
  facet normal 0.309017 -0.951056 0
    outer loop
      vertex 6.78647 0.881678 0
      vertex 8.46352 1.42658 0
      vertex 6.78647 0.881678 3
    endloop
  endfacet
  facet normal 1 0 0
    outer loop
      vertex 6.78647 0.881678 0
      vertex 6.78647 0.881678 3
      vertex 6.78647 -0.881678 3
    endloop
  endfacet
  facet normal 1 0 0
    outer loop
      vertex 6.78647 -0.881678 0
      vertex 6.78647 0.881678 0
      vertex 6.78647 -0.881678 3
    endloop
  endfacet
  facet normal -0.809017 -0.587785 0
    outer loop
      vertex 9.5 0 3
      vertex 8.46352 1.42658 3
      vertex 9.5 0 0
    endloop
  endfacet
  facet normal -0.809017 -0.587785 0
    outer loop
      vertex 9.5 0 0
      vertex 8.46352 1.42658 3
      vertex 8.46352 1.42658 0
    endloop
  endfacet
  facet normal -0.809017 0.587785 0
    outer loop
      vertex 9.5 0 3
      vertex 9.5 0 0
      vertex 8.46352 -1.42658 3
    endloop
  endfacet
  facet normal -0.809017 0.587785 0
    outer loop
      vertex 8.46352 -1.42658 3
      vertex 9.5 0 0
      vertex 8.46352 -1.42658 0
    endloop
  endfacet
  facet normal 0.309017 0.951056 0
    outer loop
      vertex 8.46352 -1.42658 3
      vertex 8.46352 -1.42658 0
      vertex 6.78647 -0.881678 3
    endloop
  endfacet
  facet normal 0.309017 0.951056 0
    outer loop
      vertex 6.78647 -0.881678 3
      vertex 8.46352 -1.42658 0
      vertex 6.78647 -0.881678 0
    endloop
  endfacet
  facet normal 0.866025 -0.5 0
    outer loop
      vertex 34.125 1.51554 0
      vertex 34.125 1.51554 3
      vertex 33.25 0 3
    endloop
  endfacet
  facet normal 0.866025 -0.5 0
    outer loop
      vertex 33.25 0 0
      vertex 34.125 1.51554 0
      vertex 33.25 0 3
    endloop
  endfacet
  facet normal 0.866025 0.5 0
    outer loop
      vertex 33.25 0 3
      vertex 34.125 -1.51554 3
      vertex 34.125 -1.51554 0
    endloop
  endfacet
  facet normal 0.866025 0.5 0
    outer loop
      vertex 33.25 0 0
      vertex 33.25 0 3
      vertex 34.125 -1.51554 0
    endloop
  endfacet
  facet normal 0 -1 0
    outer loop
      vertex 35.875 1.51554 0
      vertex 35.875 1.51554 3
      vertex 34.125 1.51554 3
    endloop
  endfacet
  facet normal 0 -1 0
    outer loop
      vertex 34.125 1.51554 0
      vertex 35.875 1.51554 0
      vertex 34.125 1.51554 3
    endloop
  endfacet
  facet normal -0.866025 -0.5 0
    outer loop
      vertex 36.75 0 3
      vertex 35.875 1.51554 3
      vertex 36.75 0 0
    endloop
  endfacet
  facet normal -0.866025 -0.5 0
    outer loop
      vertex 36.75 0 0
      vertex 35.875 1.51554 3
      vertex 35.875 1.51554 0
    endloop
  endfacet
  facet normal -0.866025 0.5 0
    outer loop
      vertex 36.75 0 3
      vertex 36.75 0 0
      vertex 35.875 -1.51554 3
    endloop
  endfacet
  facet normal -0.866025 0.5 0
    outer loop
      vertex 35.875 -1.51554 3
      vertex 36.75 0 0
      vertex 35.875 -1.51554 0
    endloop
  endfacet
  facet normal 0 1 0
    outer loop
      vertex 35.875 -1.51554 3
      vertex 35.875 -1.51554 0
      vertex 34.125 -1.51554 3
    endloop
  endfacet
  facet normal 0 1 0
    outer loop
      vertex 34.125 -1.51554 3
      vertex 35.875 -1.51554 0
      vertex 34.125 -1.51554 0
    endloop
  endfacet
  facet normal 0.866025 -0.5 0
    outer loop
      vertex 64.125 1.51554 0
      vertex 64.125 1.51554 3
      vertex 63.25 0 3
    endloop
  endfacet
  facet normal 0.866025 -0.5 0
    outer loop
      vertex 63.25 0 0
      vertex 64.125 1.51554 0
      vertex 63.25 0 3
    endloop
  endfacet
  facet normal 0.866025 0.5 0
    outer loop
      vertex 63.25 0 3
      vertex 64.125 -1.51554 3
      vertex 64.125 -1.51554 0
    endloop
  endfacet
  facet normal 0.866025 0.5 0
    outer loop
      vertex 63.25 0 0
      vertex 63.25 0 3
      vertex 64.125 -1.51554 0
    endloop
  endfacet
  facet normal 0 -1 0
    outer loop
      vertex 65.875 1.51554 0
      vertex 65.875 1.51554 3
      vertex 64.125 1.51554 3
    endloop
  endfacet
  facet normal 0 -1 0
    outer loop
      vertex 64.125 1.51554 0
      vertex 65.875 1.51554 0
      vertex 64.125 1.51554 3
    endloop
  endfacet
  facet normal -0.866025 -0.5 0
    outer loop
      vertex 66.75 0 3
      vertex 65.875 1.51554 3
      vertex 66.75 0 0
    endloop
  endfacet
  facet normal -0.866025 -0.5 0
    outer loop
      vertex 66.75 0 0
      vertex 65.875 1.51554 3
      vertex 65.875 1.51554 0
    endloop
  endfacet
  facet normal -0.866025 0.5 0
    outer loop
      vertex 66.75 0 3
      vertex 66.75 0 0
      vertex 65.875 -1.51554 3
    endloop
  endfacet
  facet normal -0.866025 0.5 0
    outer loop
      vertex 65.875 -1.51554 3
      vertex 66.75 0 0
      vertex 65.875 -1.51554 0
    endloop
  endfacet
  facet normal 0 1 0
    outer loop
      vertex 65.875 -1.51554 3
      vertex 65.875 -1.51554 0
      vertex 64.125 -1.51554 3
    endloop
  endfacet
  facet normal 0 1 0
    outer loop
      vertex 64.125 -1.51554 3
      vertex 65.875 -1.51554 0
      vertex 64.125 -1.51554 0
    endloop
  endfacet
  facet normal 1 0 0
    outer loop
      vertex 90.7865 0.881678 0
      vertex 90.7865 0.881678 3
      vertex 90.7865 -0.881678 3
    endloop
  endfacet
  facet normal 1 0 0
    outer loop
      vertex 90.7865 -0.881678 0
      vertex 90.7865 0.881678 0
      vertex 90.7865 -0.881678 3
    endloop
  endfacet
  facet normal 0.309017 -0.951056 0
    outer loop
      vertex 92.4635 1.42658 0
      vertex 92.4635 1.42658 3
      vertex 90.7865 0.881678 3
    endloop
  endfacet
  facet normal 0.309017 -0.951056 0
    outer loop
      vertex 90.7865 0.881678 0
      vertex 92.4635 1.42658 0
      vertex 90.7865 0.881678 3
    endloop
  endfacet
  facet normal -0.809017 -0.587785 0
    outer loop
      vertex 93.5 0 3
      vertex 92.4635 1.42658 3
      vertex 93.5 0 0
    endloop
  endfacet
  facet normal -0.809017 -0.587785 0
    outer loop
      vertex 93.5 0 0
      vertex 92.4635 1.42658 3
      vertex 92.4635 1.42658 0
    endloop
  endfacet
  facet normal -0.809017 0.587785 0
    outer loop
      vertex 93.5 0 3
      vertex 93.5 0 0
      vertex 92.4635 -1.42658 3
    endloop
  endfacet
  facet normal -0.809017 0.587785 0
    outer loop
      vertex 92.4635 -1.42658 3
      vertex 93.5 0 0
      vertex 92.4635 -1.42658 0
    endloop
  endfacet
  facet normal 0.309017 0.951056 0
    outer loop
      vertex 92.4635 -1.42658 3
      vertex 92.4635 -1.42658 0
      vertex 90.7865 -0.881678 3
    endloop
  endfacet
  facet normal 0.309017 0.951056 0
    outer loop
      vertex 90.7865 -0.881678 3
      vertex 92.4635 -1.42658 0
      vertex 90.7865 -0.881678 0
    endloop
  endfacet
  facet normal 1 0 0
    outer loop
      vertex 96.1162 0.957263 0
      vertex 96.1162 0.957263 3
      vertex 96.1162 -0.957263 3
    endloop
  endfacet
  facet normal 1 0 0
    outer loop
      vertex 96.1162 -0.957263 0
      vertex 96.1162 0.957263 0
      vertex 96.1162 -0.957263 3
    endloop
  endfacet
  facet normal 0.885456 -0.464723 0
    outer loop
      vertex 97.006 2.65249 0
      vertex 97.006 2.65249 3
      vertex 96.1162 0.957263 3
    endloop
  endfacet
  facet normal 0.885456 -0.464723 0
    outer loop
      vertex 96.1162 0.957263 0
      vertex 97.006 2.65249 0
      vertex 96.1162 0.957263 3
    endloop
  endfacet
  facet normal 0.568065 -0.822984 0
    outer loop
      vertex 98.5816 3.74006 0
      vertex 98.5816 3.74006 3
      vertex 97.006 2.65249 3
    endloop
  endfacet
  facet normal 0.568065 -0.822984 0
    outer loop
      vertex 97.006 2.65249 0
      vertex 98.5816 3.74006 0
      vertex 97.006 2.65249 3
    endloop
  endfacet
  facet normal 0.120536 -0.992709 0
    outer loop
      vertex 100.482 3.97083 0
      vertex 100.482 3.97083 3
      vertex 98.5816 3.74006 3
    endloop
  endfacet
  facet normal 0.120536 -0.992709 0
    outer loop
      vertex 98.5816 3.74006 0
      vertex 100.482 3.97083 0
      vertex 98.5816 3.74006 3
    endloop
  endfacet
  facet normal -0.354605 -0.935016 0
    outer loop
      vertex 102.272 3.29194 0
      vertex 102.272 3.29194 3
      vertex 100.482 3.97083 3
    endloop
  endfacet
  facet normal -0.354605 -0.935016 0
    outer loop
      vertex 100.482 3.97083 0
      vertex 102.272 3.29194 0
      vertex 100.482 3.97083 3
    endloop
  endfacet
  facet normal -0.748511 -0.663123 0
    outer loop
      vertex 103.542 1.85889 3
      vertex 102.272 3.29194 3
      vertex 103.542 1.85889 0
    endloop
  endfacet
  facet normal -0.748511 -0.663123 0
    outer loop
      vertex 103.542 1.85889 0
      vertex 102.272 3.29194 3
      vertex 102.272 3.29194 0
    endloop
  endfacet
  facet normal -0.970942 -0.239316 0
    outer loop
      vertex 104 0 3
      vertex 103.542 1.85889 3
      vertex 104 0 0
    endloop
  endfacet
  facet normal -0.970942 -0.239316 0
    outer loop
      vertex 104 0 0
      vertex 103.542 1.85889 3
      vertex 103.542 1.85889 0
    endloop
  endfacet
  facet normal -0.970942 0.239316 0
    outer loop
      vertex 104 0 3
      vertex 104 0 0
      vertex 103.542 -1.85889 3
    endloop
  endfacet
  facet normal -0.970942 0.239316 0
    outer loop
      vertex 103.542 -1.85889 3
      vertex 104 0 0
      vertex 103.542 -1.85889 0
    endloop
  endfacet
  facet normal -0.748511 0.663123 0
    outer loop
      vertex 103.542 -1.85889 3
      vertex 103.542 -1.85889 0
      vertex 102.272 -3.29194 3
    endloop
  endfacet
  facet normal -0.748511 0.663123 0
    outer loop
      vertex 102.272 -3.29194 3
      vertex 103.542 -1.85889 0
      vertex 102.272 -3.29194 0
    endloop
  endfacet
  facet normal -0.354605 0.935016 0
    outer loop
      vertex 102.272 -3.29194 3
      vertex 102.272 -3.29194 0
      vertex 100.482 -3.97083 3
    endloop
  endfacet
  facet normal -0.354605 0.935016 0
    outer loop
      vertex 100.482 -3.97083 3
      vertex 102.272 -3.29194 0
      vertex 100.482 -3.97083 0
    endloop
  endfacet
  facet normal 0.120536 0.992709 0
    outer loop
      vertex 100.482 -3.97083 3
      vertex 100.482 -3.97083 0
      vertex 98.5816 -3.74006 3
    endloop
  endfacet
  facet normal 0.120536 0.992709 0
    outer loop
      vertex 98.5816 -3.74006 3
      vertex 100.482 -3.97083 0
      vertex 98.5816 -3.74006 0
    endloop
  endfacet
  facet normal 0.568065 0.822984 0
    outer loop
      vertex 98.5816 -3.74006 3
      vertex 98.5816 -3.74006 0
      vertex 97.006 -2.65249 3
    endloop
  endfacet
  facet normal 0.568065 0.822984 0
    outer loop
      vertex 97.006 -2.65249 3
      vertex 98.5816 -3.74006 0
      vertex 97.006 -2.65249 0
    endloop
  endfacet
  facet normal 0.885456 0.464723 0
    outer loop
      vertex 96.1162 -0.957263 3
      vertex 97.006 -2.65249 3
      vertex 97.006 -2.65249 0
    endloop
  endfacet
  facet normal 0.885456 0.464723 0
    outer loop
      vertex 96.1162 -0.957263 0
      vertex 96.1162 -0.957263 3
      vertex 97.006 -2.65249 0
    endloop
  endfacet
  facet normal 0.309017 -0.951056 0
    outer loop
      vertex 100.464 -6.57341 0
      vertex 100.464 -6.57341 3
      vertex 98.7865 -7.11832 3
    endloop
  endfacet
  facet normal 0.309017 -0.951056 0
    outer loop
      vertex 98.7865 -7.11832 0
      vertex 100.464 -6.57341 0
      vertex 98.7865 -7.11832 3
    endloop
  endfacet
  facet normal 1 0 0
    outer loop
      vertex 98.7865 -7.11832 0
      vertex 98.7865 -7.11832 3
      vertex 98.7865 -8.88168 3
    endloop
  endfacet
  facet normal 1 0 0
    outer loop
      vertex 98.7865 -8.88168 0
      vertex 98.7865 -7.11832 0
      vertex 98.7865 -8.88168 3
    endloop
  endfacet
  facet normal -0.809017 -0.587785 0
    outer loop
      vertex 101.5 -8 3
      vertex 100.464 -6.57341 3
      vertex 101.5 -8 0
    endloop
  endfacet
  facet normal -0.809017 -0.587785 0
    outer loop
      vertex 101.5 -8 0
      vertex 100.464 -6.57341 3
      vertex 100.464 -6.57341 0
    endloop
  endfacet
  facet normal -0.809017 0.587785 0
    outer loop
      vertex 101.5 -8 3
      vertex 101.5 -8 0
      vertex 100.464 -9.42658 3
    endloop
  endfacet
  facet normal -0.809017 0.587785 0
    outer loop
      vertex 100.464 -9.42658 3
      vertex 101.5 -8 0
      vertex 100.464 -9.42658 0
    endloop
  endfacet
  facet normal 0.309017 0.951056 0
    outer loop
      vertex 100.464 -9.42658 3
      vertex 100.464 -9.42658 0
      vertex 98.7865 -8.88168 3
    endloop
  endfacet
  facet normal 0.309017 0.951056 0
    outer loop
      vertex 98.7865 -8.88168 3
      vertex 100.464 -9.42658 0
      vertex 98.7865 -8.88168 0
    endloop
  endfacet
  facet normal 1 0 0
    outer loop
      vertex 98.7865 8.88168 0
      vertex 98.7865 8.88168 3
      vertex 98.7865 7.11832 3
    endloop
  endfacet
  facet normal 1 0 0
    outer loop
      vertex 98.7865 7.11832 0
      vertex 98.7865 8.88168 0
      vertex 98.7865 7.11832 3
    endloop
  endfacet
  facet normal 0.309017 -0.951056 0
    outer loop
      vertex 100.464 9.42658 0
      vertex 100.464 9.42658 3
      vertex 98.7865 8.88168 3
    endloop
  endfacet
  facet normal 0.309017 -0.951056 0
    outer loop
      vertex 98.7865 8.88168 0
      vertex 100.464 9.42658 0
      vertex 98.7865 8.88168 3
    endloop
  endfacet
  facet normal -0.809017 -0.587785 0
    outer loop
      vertex 101.5 8 3
      vertex 100.464 9.42658 3
      vertex 101.5 8 0
    endloop
  endfacet
  facet normal -0.809017 -0.587785 0
    outer loop
      vertex 101.5 8 0
      vertex 100.464 9.42658 3
      vertex 100.464 9.42658 0
    endloop
  endfacet
  facet normal -0.809017 0.587785 0
    outer loop
      vertex 101.5 8 3
      vertex 101.5 8 0
      vertex 100.464 6.57341 3
    endloop
  endfacet
  facet normal -0.809017 0.587785 0
    outer loop
      vertex 100.464 6.57341 3
      vertex 101.5 8 0
      vertex 100.464 6.57341 0
    endloop
  endfacet
  facet normal 0.309017 0.951056 0
    outer loop
      vertex 100.464 6.57341 3
      vertex 100.464 6.57341 0
      vertex 98.7865 7.11832 3
    endloop
  endfacet
  facet normal 0.309017 0.951056 0
    outer loop
      vertex 98.7865 7.11832 3
      vertex 100.464 6.57341 0
      vertex 98.7865 7.11832 0
    endloop
  endfacet
  facet normal 0.309017 -0.951056 0
    outer loop
      vertex 108.464 1.42658 0
      vertex 108.464 1.42658 3
      vertex 106.786 0.881678 3
    endloop
  endfacet
  facet normal 0.309017 -0.951056 0
    outer loop
      vertex 106.786 0.881678 0
      vertex 108.464 1.42658 0
      vertex 106.786 0.881678 3
    endloop
  endfacet
  facet normal 1 0 0
    outer loop
      vertex 106.786 0.881678 0
      vertex 106.786 0.881678 3
      vertex 106.786 -0.881678 3
    endloop
  endfacet
  facet normal 1 0 0
    outer loop
      vertex 106.786 -0.881678 0
      vertex 106.786 0.881678 0
      vertex 106.786 -0.881678 3
    endloop
  endfacet
  facet normal -0.809017 -0.587785 0
    outer loop
      vertex 109.5 0 3
      vertex 108.464 1.42658 3
      vertex 109.5 0 0
    endloop
  endfacet
  facet normal -0.809017 -0.587785 0
    outer loop
      vertex 109.5 0 0
      vertex 108.464 1.42658 3
      vertex 108.464 1.42658 0
    endloop
  endfacet
  facet normal -0.809017 0.587785 0
    outer loop
      vertex 109.5 0 3
      vertex 109.5 0 0
      vertex 108.464 -1.42658 3
    endloop
  endfacet
  facet normal -0.809017 0.587785 0
    outer loop
      vertex 108.464 -1.42658 3
      vertex 109.5 0 0
      vertex 108.464 -1.42658 0
    endloop
  endfacet
  facet normal 0.309017 0.951056 0
    outer loop
      vertex 108.464 -1.42658 3
      vertex 108.464 -1.42658 0
      vertex 106.786 -0.881678 3
    endloop
  endfacet
  facet normal 0.309017 0.951056 0
    outer loop
      vertex 106.786 -0.881678 3
      vertex 108.464 -1.42658 0
      vertex 106.786 -0.881678 0
    endloop
  endfacet
endsolid OpenSCAD_Model
